<?xml version="1.0" encoding="UTF-8"?><svg xmlns="http://www.w3.org/2000/svg" xmlns:xlink="http://www.w3.org/1999/xlink" contentScriptType="text/ecmascript" width="375" zoomAndPan="magnify" contentStyleType="text/css" viewBox="0 0 375 374.999991" height="374.999991" preserveAspectRatio="xMidYMid meet" version="1.0"><defs><clipPath id="clip-0"><path d="M 87.824219 53.578125 L 260.984375 53.578125 L 260.984375 368.886719 L 87.824219 368.886719 Z M 87.824219 53.578125 " clip-rule="nonzero"/></clipPath><clipPath id="clip-1"><path d="M 111.8125 10.140625 L 287.304688 10.140625 L 287.304688 312.703125 L 111.8125 312.703125 Z M 111.8125 10.140625 " clip-rule="nonzero"/></clipPath><clipPath id="clip-2"><path d="M 88 87 L 236 87 L 236 368.945312 L 88 368.945312 Z M 88 87 " clip-rule="nonzero"/></clipPath></defs><g clip-path="url(#clip-0)"><path fill="rgb(95.689392%, 94.509888%, 88.62915%)" d="M 253.242188 342.601562 C 245.613281 349.917969 238.175781 349.789062 233.539062 348.578125 C 240.585938 353.398438 233.25 362.574219 233.25 362.574219 C 218.757812 370.0625 193.769531 356.582031 193.769531 356.582031 C 189.773438 365.070312 181.277344 366.570312 181.277344 366.570312 C 160.785156 372.058594 143.296875 366.066406 143.296875 366.066406 C 143.296875 366.066406 144.792969 363.574219 144.292969 358.578125 C 143.796875 353.585938 157.785156 349.09375 157.785156 349.09375 C 116.808594 357.582031 87.824219 346.097656 87.824219 346.097656 C 89.324219 332.117188 114.808594 330.621094 114.808594 330.621094 C 114.808594 330.621094 94.820312 315.640625 92.320312 281.6875 C 89.824219 247.738281 113.8125 250.734375 113.8125 250.734375 L 126.304688 262.71875 L 145.792969 216.285156 C 126.617188 177.214844 138.277344 150.867188 145.226562 140.21875 C 140.375 134.484375 136.761719 128.859375 134.257812 124.40625 L 141.835938 104.589844 C 141.835938 104.589844 149.425781 85.246094 162.714844 93.589844 C 162.714844 93.589844 184.734375 47.695312 196.503906 76.519531 C 196.503906 76.519531 197.261719 53.382812 201.441406 53.765625 C 201.441406 53.765625 207.511719 57.179688 209.035156 76.140625 C 209.035156 76.140625 224.601562 53.003906 234.089844 99.65625 C 234.089844 99.65625 242.820312 90.933594 239.78125 113.3125 C 239.78125 114.339844 239.671875 127.714844 239.570312 139.699219 C 239.320312 141.117188 239.15625 141.886719 239.15625 141.886719 C 238.109375 148.933594 234.847656 154.058594 230.425781 157.777344 C 232.550781 159.082031 233.75 159.867188 233.75 159.867188 C 233.75 159.867188 233.25 190.320312 232.75 192.320312 C 232.25 194.316406 229.753906 212.789062 229.753906 212.789062 C 229.753906 212.789062 232.75 226.269531 232.25 228.269531 C 231.75 230.265625 237.25 256.726562 237.25 256.726562 L 259.238281 290.179688 C 263.734375 299.664062 253.242188 342.601562 253.242188 342.601562 " fill-opacity="1" fill-rule="nonzero"/></g><g clip-path="url(#clip-1)"><path fill="rgb(15.289307%, 12.939453%, 18.429565%)" d="M 215.949219 84.761719 C 215.949219 84.761719 223.417969 83.980469 228.039062 86.671875 C 228.039062 86.671875 225.804688 81.492188 222.121094 80.355469 C 222.121094 80.355469 216.621094 78.539062 215.839844 80.773438 C 215.839844 80.773438 213.976562 82.066406 215.949219 84.761719 Z M 191.683594 77.914062 C 191.21875 75.160156 184.441406 76.191406 184.441406 76.191406 C 179.921875 76.792969 176.292969 82.398438 176.292969 82.398438 C 182.210938 80.167969 190.773438 82.546875 190.773438 82.546875 C 193.609375 79.792969 191.683594 77.914062 191.683594 77.914062 Z M 239.710938 122.855469 C 239.65625 122.789062 239.601562 122.722656 239.542969 122.664062 C 239.542969 122.664062 222.078125 139.730469 217.144531 164.765625 C 217.144531 164.765625 218.742188 161.859375 221.378906 157.820312 C 232.539062 151.265625 237.503906 141.226562 239.058594 137.425781 C 239.21875 137.308594 239.382812 137.191406 239.542969 137.074219 C 239.542969 137.074219 239.5625 136.996094 239.59375 136.851562 C 239.582031 137.804688 239.578125 138.753906 239.570312 139.699219 C 241.125 130.851562 246 96.867188 235.019531 69.234375 C 245.152344 58.902344 238.015625 37.203125 238.015625 37.203125 C 236.5 11.414062 225.488281 21.65625 225.488281 21.65625 C 224.242188 29.378906 217.917969 37.265625 213.722656 41.765625 C 210.472656 40.25 197.125 34.699219 181.914062 37.980469 C 180.566406 27.128906 177.363281 10.015625 170.601562 10.191406 C 170.601562 10.191406 153.71875 6.320312 148.664062 64.566406 C 148.457031 64.921875 148.246094 65.285156 148.042969 65.648438 L 129.820312 115.339844 C 129.820312 115.339844 131.140625 118.789062 133.988281 123.921875 C 130.082031 125.546875 126.492188 128.816406 126.492188 128.816406 C 105.441406 179.894531 130.304688 211.792969 130.304688 211.792969 L 113.8125 250.734375 C 104.066406 288.179688 133.300781 306.15625 133.300781 306.15625 C 148.292969 305.40625 153.542969 280.691406 153.542969 280.691406 L 152.042969 215.535156 C 130.304688 192.320312 141.546875 150.378906 141.546875 150.378906 C 142.519531 145.96875 143.144531 142.234375 143.484375 139.066406 C 159.96875 161.136719 175.003906 161.351562 175.003906 161.351562 C 175.335938 139.386719 149.660156 108.664062 143.359375 101.460938 C 146.195312 96.367188 152.902344 87.425781 162.714844 93.589844 C 162.714844 93.589844 184.734375 47.695312 196.503906 76.519531 C 196.503906 76.519531 197.261719 53.382812 201.441406 53.765625 C 201.441406 53.765625 207.511719 57.179688 209.035156 76.140625 C 209.035156 76.140625 224.601562 53.003906 234.089844 99.65625 C 234.089844 99.65625 242.820312 90.933594 239.78125 113.3125 C 239.78125 113.84375 239.753906 117.648438 239.710938 122.855469 Z M 258.488281 312.144531 C 262.234375 287.433594 248.742188 297.917969 248.742188 297.917969 C 233 330.121094 234.5 286.683594 234.5 286.683594 L 221.757812 292.675781 C 210.511719 283.6875 227.753906 218.53125 227.753906 218.53125 L 221.757812 216.285156 C 237.5 187.824219 228.503906 160.117188 228.503906 160.117188 L 239.15625 141.886719 C 248.3125 167.097656 236 200.558594 236 200.558594 C 241.246094 208.796875 250.992188 263.464844 250.992188 263.464844 C 258.488281 223.023438 283.976562 205.050781 283.976562 205.050781 C 298.96875 254.480469 258.488281 312.144531 258.488281 312.144531 " fill-opacity="1" fill-rule="nonzero"/></g><path fill="rgb(33.329773%, 5.879211%, 12.939453%)" d="M 239.628906 153.597656 C 229.507812 173.320312 195.839844 175.089844 195.839844 175.089844 C 149.273438 173.320312 126.492188 128.816406 126.492188 128.816406 C 125.730469 120.46875 129.820312 114.832031 129.820312 114.832031 C 152.382812 163.308594 196.855469 164.46875 196.855469 164.46875 C 231.53125 163.207031 239.886719 135.136719 239.886719 135.136719 C 243.171875 137.160156 239.628906 153.597656 239.628906 153.597656 " fill-opacity="1" fill-rule="nonzero"/><path fill="rgb(41.178894%, 40.388489%, 45.878601%)" d="M 193.324219 97.835938 C 193.324219 97.835938 185.984375 105.171875 171.808594 91.765625 C 171.808594 91.765625 170.800781 88.226562 178.136719 87.214844 C 178.136719 87.214844 196.363281 78.363281 193.324219 97.835938 " fill-opacity="1" fill-rule="nonzero"/><path fill="rgb(41.178894%, 40.388489%, 45.878601%)" d="M 213.421875 96.863281 C 213.421875 96.863281 217.433594 103.785156 230.660156 96.613281 C 230.660156 96.613281 232.121094 94.175781 226.851562 91.964844 C 226.851562 91.964844 215.03125 81.753906 213.421875 96.863281 " fill-opacity="1" fill-rule="nonzero"/><path fill="rgb(100%, 100%, 100%)" d="M 168 16.796875 C 160.15625 19.324219 157.371094 51.691406 157.371094 51.691406 C 160.40625 53.207031 158.636719 60.035156 158.636719 60.035156 C 172.050781 59.53125 175.089844 44.609375 175.089844 44.609375 C 175.339844 5.921875 168 16.796875 168 16.796875 Z M 230.691406 25.703125 C 228.273438 24.445312 219.019531 45.890625 219.019531 45.890625 C 224.867188 51.042969 229.566406 67.773438 229.566406 67.773438 C 244.757812 42.851562 230.691406 25.703125 230.691406 25.703125 Z M 217.105469 113.640625 C 199.640625 103.023438 204.703125 92.65625 204.703125 92.65625 C 212.800781 102.515625 233.050781 111.367188 233.050781 111.367188 L 217.105469 113.640625 " fill-opacity="1" fill-rule="nonzero"/><g clip-path="url(#clip-2)"><path fill="rgb(10.5896%, 10.198975%, 10.5896%)" d="M 111.730469 348.941406 C 111.90625 347.507812 112.246094 345.566406 113.214844 343.726562 C 114.175781 341.902344 115.621094 340.609375 116.792969 339.898438 C 117.964844 339.164062 118.867188 338.914062 118.84375 338.617188 C 118.835938 338.367188 117.796875 338.09375 116.199219 338.605469 C 114.628906 339.09375 112.632812 340.515625 111.433594 342.789062 C 110.246094 345.050781 110.117188 347.378906 110.304688 348.941406 C 110.496094 350.519531 110.945312 351.410156 111.207031 351.367188 C 111.492188 351.324219 111.554688 350.375 111.730469 348.941406 Z M 99.34375 347.207031 C 99.636719 346.003906 100.386719 344.292969 101.613281 342.765625 C 102.84375 341.222656 104.3125 340.199219 105.492188 339.675781 C 106.667969 339.128906 107.542969 338.992188 107.554688 338.6875 C 107.578125 338.445312 106.644531 338.042969 105.082031 338.316406 C 103.535156 338.554688 101.511719 339.644531 100.035156 341.507812 C 98.5625 343.371094 97.894531 345.472656 97.921875 347.082031 C 97.941406 347.890625 98.164062 348.542969 98.421875 348.925781 C 98.675781 349.3125 98.921875 349.433594 99.035156 349.367188 C 99.285156 349.214844 99.035156 348.417969 99.34375 347.207031 Z M 107.691406 331.6875 C 105.015625 331.890625 101.21875 332.347656 97.292969 333.992188 C 95.339844 334.808594 93.5625 335.890625 92.167969 337.164062 C 90.773438 338.441406 89.804688 339.921875 89.304688 341.277344 C 88.800781 342.636719 88.738281 343.808594 88.800781 344.589844 C 88.867188 345.375 89.050781 345.785156 89.183594 345.777344 C 89.324219 345.769531 89.414062 345.351562 89.582031 344.648438 C 89.757812 343.945312 90.023438 342.945312 90.605469 341.855469 C 91.1875 340.765625 92.105469 339.605469 93.386719 338.5625 C 94.667969 337.523438 96.269531 336.601562 98.078125 335.84375 C 101.699219 334.320312 105.292969 333.652344 107.886719 333.097656 C 110.492188 332.5625 112.117188 332.152344 112.082031 331.871094 C 112.050781 331.601562 110.386719 331.511719 107.691406 331.6875 Z M 122.160156 330.003906 C 128.511719 329.054688 133.769531 329.046875 133.808594 328.464844 C 133.871094 327.945312 128.476562 327.03125 121.871094 328.011719 C 115.257812 328.960938 110.351562 331.378906 110.5625 331.859375 C 110.761719 332.40625 115.804688 330.910156 122.160156 330.003906 Z M 229.84375 362.242188 C 230.191406 360.75 230.53125 358.585938 230.226562 356.140625 C 229.921875 353.683594 228.859375 351.574219 227.726562 350.386719 C 226.597656 349.171875 225.582031 348.859375 225.445312 349.070312 C 225.265625 349.3125 225.898438 350 226.578125 351.230469 C 227.273438 352.449219 227.960938 354.269531 228.230469 356.398438 C 228.5 358.542969 228.414062 360.574219 228.429688 362.078125 C 228.433594 363.582031 228.539062 364.546875 228.820312 364.585938 C 229.089844 364.621094 229.480469 363.738281 229.84375 362.242188 Z M 220.066406 364.949219 L 220.300781 364.996094 L 220.449219 364.589844 C 220.699219 363.894531 220.992188 362.734375 221.207031 361.230469 C 221.417969 359.730469 221.550781 357.863281 221.265625 355.839844 C 220.902344 353.097656 219.652344 350.757812 218.355469 349.464844 C 217.050781 348.144531 215.902344 347.835938 215.785156 348.054688 C 215.617188 348.308594 216.402344 349.011719 217.242188 350.351562 C 218.089844 351.6875 218.949219 353.71875 219.273438 356.125 C 219.527344 357.917969 219.53125 359.648438 219.539062 361.113281 C 219.535156 362.574219 219.546875 363.769531 219.648438 364.503906 L 220.027344 364.144531 C 219.523438 364.292969 219.253906 364.441406 219.257812 364.585938 C 219.265625 364.726562 219.546875 364.851562 220.066406 364.949219 Z M 215.210938 292.886719 C 216.160156 300.015625 217.609375 309.84375 219.335938 320.675781 C 219.773438 323.386719 220.203125 326.03125 220.617188 328.585938 C 221.046875 331.148438 221.550781 333.632812 222.214844 335.972656 C 222.878906 338.304688 223.734375 340.484375 224.808594 342.398438 C 225.882812 344.316406 227.1875 345.945312 228.605469 347.183594 C 230.035156 348.445312 231.527344 349.210938 232.628906 350.011719 C 233.761719 350.792969 234.5 351.65625 234.882812 352.515625 C 235.269531 353.367188 235.324219 354.109375 235.261719 354.597656 C 235.207031 355.09375 235.101562 355.359375 235.171875 355.394531 C 235.21875 355.429688 235.453125 355.226562 235.65625 354.695312 C 235.867188 354.167969 235.949219 353.273438 235.617188 352.234375 C 235.449219 351.71875 235.179688 351.171875 234.789062 350.632812 C 234.386719 350.097656 233.890625 349.601562 233.320312 349.121094 C 232.171875 348.160156 230.789062 347.335938 229.570312 346.140625 C 227.070312 343.757812 225.160156 339.976562 224.003906 335.476562 C 222.828125 330.984375 222.230469 325.777344 221.324219 320.359375 C 219.597656 309.527344 217.925781 299.738281 216.617188 292.664062 C 215.308594 285.59375 214.359375 281.242188 214.085938 281.285156 C 213.808594 281.328125 214.261719 285.761719 215.210938 292.886719 Z M 197.535156 244.734375 C 199.625 232.707031 201.257812 222.929688 200.703125 222.816406 C 200.167969 222.699219 197.648438 232.320312 195.550781 244.390625 C 193.441406 256.460938 192.554688 266.367188 193.097656 266.4375 C 193.65625 266.515625 195.433594 256.765625 197.535156 244.734375 Z M 186.871094 234.796875 C 188.144531 237.796875 189.648438 242.285156 190.632812 248.035156 C 191.667969 253.773438 192.167969 260.726562 192.671875 268.476562 C 193.175781 276.222656 193.632812 284.746094 193.933594 293.699219 C 194.554688 311.601562 194.472656 327.828125 194.257812 339.570312 C 194.136719 345.441406 194.039062 350.195312 193.972656 353.480469 C 193.90625 356.769531 193.933594 358.589844 194.074219 358.597656 C 194.214844 358.605469 194.449219 356.800781 194.753906 353.519531 C 195.050781 350.246094 195.390625 345.492188 195.679688 339.617188 C 196.261719 327.863281 196.566406 311.585938 195.945312 293.628906 C 195.644531 284.648438 195.128906 276.105469 194.523438 268.347656 C 193.917969 260.601562 193.265625 253.574219 192.03125 247.765625 C 190.847656 241.945312 189.101562 237.414062 187.582031 234.464844 C 186.0625 231.515625 184.898438 230.078125 184.8125 230.136719 C 184.664062 230.226562 185.597656 231.796875 186.871094 234.796875 Z M 147.71875 353.808594 C 149.320312 352.359375 151.789062 350.371094 155.289062 348.792969 C 155.726562 348.59375 156.175781 348.40625 156.644531 348.226562 C 157.101562 348.039062 157.664062 347.867188 158.238281 347.457031 C 158.519531 347.253906 158.800781 346.964844 158.992188 346.632812 C 159.1875 346.304688 159.304688 345.957031 159.378906 345.632812 C 159.527344 344.964844 159.539062 344.398438 159.59375 343.828125 C 159.773438 341.527344 159.972656 339.0625 160.179688 336.472656 C 160.582031 331.296875 160.992188 325.601562 161.394531 319.617188 C 162.199219 307.65625 162.816406 296.816406 163.164062 288.964844 C 163.507812 281.113281 163.585938 276.246094 163.304688 276.230469 C 163.027344 276.210938 162.453125 281.042969 161.742188 288.871094 C 161.03125 296.695312 160.191406 307.519531 159.386719 319.484375 C 158.980469 325.464844 158.628906 331.164062 158.328125 336.347656 C 158.1875 338.945312 158.054688 341.40625 157.925781 343.714844 C 157.890625 344.292969 157.882812 344.867188 157.800781 345.292969 C 157.707031 345.742188 157.585938 345.992188 157.300781 346.21875 C 157.011719 346.453125 156.5625 346.636719 156.078125 346.847656 C 155.59375 347.0625 155.125 347.28125 154.675781 347.507812 C 151.0625 349.347656 148.636719 351.597656 147.160156 353.257812 C 145.683594 354.9375 145.105469 356.035156 145.203125 356.105469 C 145.328125 356.199219 146.113281 355.269531 147.71875 353.808594 Z M 162.464844 366.085938 C 162.875 364.773438 163.648438 363.058594 164.851562 361.296875 C 166.039062 359.535156 167.324219 357.976562 168.144531 356.757812 C 168.539062 356.171875 168.847656 355.777344 169.105469 355.519531 C 169.355469 355.257812 169.550781 355.113281 169.53125 354.972656 C 169.515625 354.839844 169.246094 354.714844 168.753906 354.816406 C 168.265625 354.914062 167.648438 355.296875 167.082031 355.8125 C 165.980469 356.804688 164.5 358.226562 163.175781 360.175781 C 161.84375 362.117188 161.140625 364.261719 161.0625 365.835938 C 160.96875 367.425781 161.375 368.355469 161.632812 368.324219 C 161.925781 368.296875 162.042969 367.394531 162.464844 366.085938 Z M 150.675781 364.890625 C 151.003906 363.46875 151.445312 361.53125 152.34375 359.625 C 153.238281 357.730469 154.492188 356.273438 155.546875 355.378906 C 156.59375 354.46875 157.414062 354.035156 157.332031 353.75 C 157.273438 353.503906 156.226562 353.449219 154.757812 354.191406 C 153.304688 354.90625 151.578125 356.515625 150.523438 358.761719 C 149.472656 361 149.238281 363.214844 149.261719 364.746094 C 149.289062 366.292969 149.554688 367.226562 149.824219 367.234375 C 150.109375 367.238281 150.351562 366.316406 150.675781 364.890625 Z M 226.414062 97.992188 C 221.640625 82.757812 214.496094 96.929688 214.496094 96.929688 C 219.519531 93.910156 226.414062 97.992188 226.414062 97.992188 Z M 191.75 96.742188 C 191.75 96.742188 186.859375 77.734375 177.070312 94.886719 C 177.070312 94.886719 186.476562 91.769531 191.75 96.742188 Z M 226.441406 124.847656 L 224.449219 130.382812 C 224.964844 130.910156 226.085938 131.847656 227.40625 131.839844 C 228.515625 131.832031 229.613281 131.140625 230.664062 129.789062 C 230.960938 129.40625 231.519531 129.335938 231.90625 129.632812 C 232.292969 129.929688 232.363281 130.488281 232.0625 130.875 C 230.660156 132.6875 229.089844 133.605469 227.394531 133.609375 C 227.394531 133.609375 227.394531 133.609375 227.390625 133.609375 C 225.550781 133.609375 224.089844 132.503906 223.324219 131.765625 C 221.046875 133.382812 213.257812 138.414062 204.367188 138.414062 C 202.988281 138.414062 201.585938 138.292969 200.175781 138.019531 C 193.613281 136.757812 188.152344 132.449219 183.941406 125.214844 C 183.695312 124.792969 183.839844 124.25 184.261719 124.003906 C 184.683594 123.757812 185.226562 123.902344 185.472656 124.324219 C 189.414062 131.09375 194.46875 135.117188 200.5 136.28125 C 210.90625 138.289062 221.148438 131.164062 222.6875 130.035156 L 224.570312 124.816406 C 224.328125 124.792969 224.191406 124.769531 224.191406 124.769531 C 217.101562 123.757812 216.09375 112.632812 216.09375 112.632812 C 225.203125 108.585938 235.835938 112.378906 235.835938 112.378906 C 236.386719 122.859375 229.980469 124.652344 226.441406 124.847656 " fill-opacity="1" fill-rule="nonzero"/></g></svg>