<?xml version="1.0" encoding="UTF-8"?><svg xmlns="http://www.w3.org/2000/svg" xmlns:xlink="http://www.w3.org/1999/xlink" contentScriptType="text/ecmascript" width="375" zoomAndPan="magnify" contentStyleType="text/css" viewBox="0 0 375 374.999991" height="374.999991" preserveAspectRatio="xMidYMid meet" version="1.0"><defs><clipPath id="clip-0"><path d="M 89.257812 55.496094 L 259.8125 55.496094 L 259.8125 366.242188 L 89.257812 366.242188 Z M 89.257812 55.496094 " clip-rule="nonzero"/></clipPath><clipPath id="clip-1"><path d="M 112.882812 12.6875 L 285.734375 12.6875 L 285.734375 310.871094 L 112.882812 310.871094 Z M 112.882812 12.6875 " clip-rule="nonzero"/></clipPath></defs><rect x="-37.5" width="450" fill="rgb(100%, 100%, 100%)" y="-37.499999" height="449.999989" fill-opacity="1"/><rect x="-37.5" width="450" fill="rgb(100%, 100%, 100%)" y="-37.499999" height="449.999989" fill-opacity="1"/><rect x="-37.5" width="450" fill="rgb(100%, 100%, 100%)" y="-37.499999" height="449.999989" fill-opacity="1"/><g clip-path="url(#clip-0)"><path fill="rgb(95.689392%, 94.509888%, 88.62915%)" d="M 252.183594 340.339844 C 244.671875 347.550781 237.347656 347.421875 232.777344 346.230469 C 239.722656 350.980469 232.492188 360.023438 232.492188 360.023438 C 218.21875 367.402344 193.605469 354.117188 193.605469 354.117188 C 189.671875 362.484375 181.304688 363.960938 181.304688 363.960938 C 161.121094 369.371094 143.894531 363.46875 143.894531 363.46875 C 143.894531 363.46875 145.371094 361.007812 144.878906 356.085938 C 144.386719 351.164062 158.167969 346.738281 158.167969 346.738281 C 117.808594 355.101562 89.257812 343.785156 89.257812 343.785156 C 90.734375 330.007812 115.835938 328.53125 115.835938 328.53125 C 115.835938 328.53125 96.148438 313.769531 93.6875 280.308594 C 91.226562 246.851562 114.851562 249.800781 114.851562 249.800781 L 127.15625 261.613281 L 146.355469 215.851562 C 127.464844 177.347656 138.949219 151.378906 145.796875 140.882812 C 141.019531 135.234375 137.460938 129.6875 134.992188 125.300781 L 142.453125 105.769531 C 142.453125 105.769531 149.933594 86.707031 163.019531 94.929688 C 163.019531 94.929688 184.710938 49.699219 196.300781 78.109375 C 196.300781 78.109375 197.046875 55.304688 201.164062 55.679688 C 201.164062 55.679688 207.144531 59.042969 208.640625 77.734375 C 208.640625 77.734375 223.972656 54.929688 233.320312 100.90625 C 233.320312 100.90625 241.921875 92.3125 238.925781 114.367188 C 238.925781 115.382812 238.816406 128.558594 238.71875 140.371094 C 238.472656 141.769531 238.308594 142.527344 238.308594 142.527344 C 237.28125 149.472656 234.066406 154.527344 229.714844 158.191406 C 231.804688 159.476562 232.988281 160.25 232.988281 160.25 C 232.988281 160.25 232.492188 190.261719 232.003906 192.230469 C 231.511719 194.199219 229.050781 212.40625 229.050781 212.40625 C 229.050781 212.40625 232.003906 225.691406 231.511719 227.660156 C 231.015625 229.628906 236.433594 255.707031 236.433594 255.707031 L 258.089844 288.675781 C 262.519531 298.023438 252.183594 340.339844 252.183594 340.339844 " fill-opacity="1" fill-rule="nonzero"/></g><g clip-path="url(#clip-1)"><path fill="rgb(15.289307%, 12.939453%, 18.429565%)" d="M 215.453125 86.230469 C 215.453125 86.230469 222.8125 85.460938 227.363281 88.113281 C 227.363281 88.113281 225.160156 83.007812 221.535156 81.886719 C 221.535156 81.886719 216.113281 80.097656 215.347656 82.296875 C 215.347656 82.296875 213.511719 83.574219 215.453125 86.230469 Z M 191.554688 79.480469 C 191.09375 76.765625 184.421875 77.78125 184.421875 77.78125 C 179.96875 78.375 176.394531 83.898438 176.394531 83.898438 C 182.222656 81.699219 190.65625 84.046875 190.65625 84.046875 C 193.449219 81.335938 191.554688 79.480469 191.554688 79.480469 Z M 238.855469 123.769531 C 238.804688 123.703125 238.75 123.640625 238.691406 123.582031 C 238.691406 123.582031 221.492188 140.402344 216.628906 165.074219 C 216.628906 165.074219 218.203125 162.210938 220.800781 158.230469 C 231.792969 151.769531 236.683594 141.878906 238.214844 138.132812 C 238.375 138.015625 238.53125 137.902344 238.691406 137.785156 C 238.691406 137.785156 238.710938 137.707031 238.742188 137.5625 C 238.730469 138.503906 238.726562 139.441406 238.71875 140.371094 C 240.25 131.652344 245.050781 98.160156 234.238281 70.925781 C 244.21875 60.742188 237.1875 39.359375 237.1875 39.359375 C 235.695312 13.941406 224.851562 24.035156 224.851562 24.035156 C 223.621094 31.644531 217.390625 39.417969 213.261719 43.855469 C 210.058594 42.359375 196.910156 36.890625 181.929688 40.125 C 180.601562 29.433594 177.449219 12.5625 170.789062 12.734375 C 170.789062 12.734375 154.160156 8.921875 149.183594 66.324219 C 148.976562 66.675781 148.769531 67.035156 148.570312 67.394531 L 130.621094 116.363281 C 130.621094 116.363281 131.921875 119.761719 134.726562 124.824219 C 130.878906 126.421875 127.339844 129.648438 127.339844 129.648438 C 106.609375 179.988281 131.097656 211.421875 131.097656 211.421875 L 114.851562 249.800781 C 105.253906 286.707031 134.050781 304.421875 134.050781 304.421875 C 148.816406 303.683594 153.984375 279.324219 153.984375 279.324219 L 152.507812 215.113281 C 131.097656 192.230469 142.171875 150.898438 142.171875 150.898438 C 143.128906 146.550781 143.742188 142.871094 144.082031 139.75 C 160.316406 161.5 175.125 161.710938 175.125 161.710938 C 175.453125 140.0625 150.160156 109.785156 143.957031 102.6875 C 146.75 97.667969 153.355469 88.851562 163.019531 94.929688 C 163.019531 94.929688 184.710938 49.699219 196.300781 78.109375 C 196.300781 78.109375 197.046875 55.304688 201.164062 55.679688 C 201.164062 55.679688 207.144531 59.042969 208.640625 77.734375 C 208.640625 77.734375 223.972656 54.929688 233.320312 100.90625 C 233.320312 100.90625 241.921875 92.3125 238.925781 114.367188 C 238.925781 114.890625 238.898438 118.640625 238.855469 123.769531 Z M 257.351562 310.324219 C 261.042969 285.96875 247.753906 296.300781 247.753906 296.300781 C 232.25 328.039062 233.726562 285.230469 233.726562 285.230469 L 221.171875 291.136719 C 210.097656 282.277344 227.078125 218.066406 227.078125 218.066406 L 221.171875 215.851562 C 236.679688 187.804688 227.816406 160.492188 227.816406 160.492188 L 238.308594 142.527344 C 247.328125 167.375 235.203125 200.351562 235.203125 200.351562 C 240.371094 208.46875 249.96875 262.351562 249.96875 262.351562 C 257.351562 222.492188 282.453125 204.777344 282.453125 204.777344 C 297.222656 253.492188 257.351562 310.324219 257.351562 310.324219 " fill-opacity="1" fill-rule="nonzero"/></g><path fill="rgb(33.329773%, 5.879211%, 12.939453%)" d="M 238.777344 154.070312 C 228.808594 173.507812 195.648438 175.253906 195.648438 175.253906 C 149.78125 173.507812 127.339844 129.648438 127.339844 129.648438 C 126.59375 121.421875 130.621094 115.863281 130.621094 115.863281 C 152.84375 163.640625 196.648438 164.785156 196.648438 164.785156 C 230.800781 163.539062 239.027344 135.878906 239.027344 135.878906 C 242.265625 137.871094 238.777344 154.070312 238.777344 154.070312 " fill-opacity="1" fill-rule="nonzero"/><path fill="rgb(41.178894%, 40.388489%, 45.878601%)" d="M 193.167969 99.113281 C 193.167969 99.113281 185.941406 106.34375 171.980469 93.132812 C 171.980469 93.132812 170.984375 89.644531 178.210938 88.644531 C 178.210938 88.644531 196.164062 79.925781 193.167969 99.113281 " fill-opacity="1" fill-rule="nonzero"/><path fill="rgb(41.178894%, 40.388489%, 45.878601%)" d="M 212.964844 98.15625 C 212.964844 98.15625 216.917969 104.980469 229.945312 97.910156 C 229.945312 97.910156 231.378906 95.507812 226.191406 93.328125 C 226.191406 93.328125 214.546875 83.261719 212.964844 98.15625 " fill-opacity="1" fill-rule="nonzero"/><path fill="rgb(100%, 100%, 100%)" d="M 168.226562 19.246094 C 160.5 21.738281 157.757812 53.636719 157.757812 53.636719 C 160.75 55.132812 159.003906 61.863281 159.003906 61.863281 C 172.214844 61.363281 175.210938 46.660156 175.210938 46.660156 C 175.457031 8.527344 168.226562 19.246094 168.226562 19.246094 Z M 229.972656 28.023438 C 227.589844 26.785156 218.476562 47.921875 218.476562 47.921875 C 224.234375 53 228.863281 69.488281 228.863281 69.488281 C 243.828125 44.925781 229.972656 28.023438 229.972656 28.023438 Z M 216.59375 114.691406 C 199.390625 104.226562 204.375 94.007812 204.375 94.007812 C 212.355469 103.726562 232.296875 112.449219 232.296875 112.449219 L 216.59375 114.691406 " fill-opacity="1" fill-rule="nonzero"/><path fill="rgb(10.5896%, 10.198975%, 10.5896%)" d="M 112.804688 346.585938 C 112.976562 345.175781 113.3125 343.261719 114.265625 341.449219 C 115.214844 339.652344 116.636719 338.378906 117.789062 337.675781 C 118.945312 336.953125 119.835938 336.707031 119.808594 336.410156 C 119.800781 336.167969 118.777344 335.894531 117.207031 336.398438 C 115.65625 336.882812 113.691406 338.28125 112.511719 340.523438 C 111.34375 342.753906 111.214844 345.050781 111.402344 346.585938 C 111.589844 348.144531 112.03125 349.023438 112.285156 348.980469 C 112.570312 348.9375 112.628906 348 112.804688 346.585938 Z M 100.601562 344.878906 C 100.890625 343.691406 101.632812 342.007812 102.839844 340.5 C 104.050781 338.980469 105.496094 337.972656 106.660156 337.457031 C 107.816406 336.917969 108.679688 336.785156 108.691406 336.484375 C 108.714844 336.246094 107.792969 335.847656 106.257812 336.113281 C 104.734375 336.351562 102.738281 337.425781 101.285156 339.261719 C 99.832031 341.097656 99.175781 343.171875 99.203125 344.753906 C 99.222656 345.550781 99.445312 346.199219 99.695312 346.570312 C 99.945312 346.953125 100.1875 347.074219 100.300781 347.007812 C 100.546875 346.859375 100.300781 346.074219 100.601562 344.878906 Z M 108.824219 329.585938 C 106.191406 329.785156 102.453125 330.234375 98.585938 331.855469 C 96.660156 332.65625 94.910156 333.726562 93.535156 334.980469 C 92.160156 336.238281 91.207031 337.699219 90.714844 339.035156 C 90.21875 340.375 90.160156 341.53125 90.21875 342.300781 C 90.285156 343.074219 90.464844 343.476562 90.59375 343.46875 C 90.738281 343.464844 90.824219 343.050781 90.992188 342.355469 C 91.160156 341.664062 91.421875 340.679688 91.996094 339.605469 C 92.570312 338.53125 93.476562 337.386719 94.738281 336.359375 C 95.996094 335.332031 97.578125 334.425781 99.355469 333.679688 C 102.925781 332.179688 106.464844 331.519531 109.019531 330.972656 C 111.582031 330.445312 113.1875 330.042969 113.152344 329.761719 C 113.121094 329.5 111.480469 329.410156 108.824219 329.585938 Z M 123.074219 327.925781 C 129.332031 326.988281 134.511719 326.980469 134.550781 326.40625 C 134.609375 325.894531 129.296875 324.996094 122.789062 325.960938 C 116.277344 326.898438 111.445312 329.277344 111.652344 329.753906 C 111.851562 330.292969 116.816406 328.816406 123.074219 327.925781 Z M 229.140625 359.695312 C 229.480469 358.226562 229.816406 356.09375 229.515625 353.683594 C 229.21875 351.261719 228.171875 349.183594 227.054688 348.011719 C 225.941406 346.816406 224.941406 346.503906 224.808594 346.714844 C 224.632812 346.953125 225.253906 347.632812 225.921875 348.84375 C 226.605469 350.042969 227.285156 351.839844 227.550781 353.9375 C 227.816406 356.050781 227.730469 358.054688 227.746094 359.535156 C 227.75 361.015625 227.851562 361.96875 228.128906 362.003906 C 228.394531 362.039062 228.78125 361.171875 229.140625 359.695312 Z M 219.507812 362.367188 L 219.738281 362.410156 L 219.882812 362.011719 C 220.132812 361.324219 220.421875 360.179688 220.632812 358.699219 C 220.839844 357.21875 220.972656 355.378906 220.6875 353.386719 C 220.332031 350.683594 219.097656 348.378906 217.824219 347.105469 C 216.539062 345.800781 215.40625 345.5 215.292969 345.714844 C 215.128906 345.964844 215.898438 346.660156 216.726562 347.980469 C 217.5625 349.292969 218.40625 351.292969 218.726562 353.667969 C 218.976562 355.433594 218.980469 357.140625 218.988281 358.582031 C 218.988281 360.023438 218.996094 361.203125 219.097656 361.925781 L 219.472656 361.574219 C 218.976562 361.71875 218.707031 361.863281 218.714844 362.003906 C 218.71875 362.148438 219 362.269531 219.507812 362.367188 Z M 214.726562 291.34375 C 215.660156 298.371094 217.089844 308.054688 218.789062 318.734375 C 219.21875 321.402344 219.644531 324.007812 220.050781 326.527344 C 220.476562 329.054688 220.972656 331.5 221.621094 333.804688 C 222.277344 336.101562 223.121094 338.253906 224.179688 340.140625 C 225.238281 342.027344 226.523438 343.636719 227.917969 344.855469 C 229.328125 346.097656 230.796875 346.855469 231.882812 347.640625 C 232.996094 348.414062 233.726562 349.265625 234.101562 350.113281 C 234.484375 350.949219 234.539062 351.679688 234.476562 352.164062 C 234.417969 352.652344 234.316406 352.914062 234.386719 352.949219 C 234.433594 352.980469 234.660156 352.78125 234.863281 352.257812 C 235.070312 351.738281 235.152344 350.855469 234.824219 349.832031 C 234.660156 349.324219 234.394531 348.785156 234.011719 348.253906 C 233.613281 347.726562 233.125 347.238281 232.5625 346.765625 C 231.433594 345.820312 230.070312 345.007812 228.871094 343.828125 C 226.40625 341.480469 224.527344 337.753906 223.386719 333.316406 C 222.230469 328.890625 221.640625 323.757812 220.746094 318.421875 C 219.046875 307.746094 217.402344 298.09375 216.113281 291.125 C 214.824219 284.15625 213.886719 279.867188 213.617188 279.910156 C 213.34375 279.953125 213.789062 284.320312 214.726562 291.34375 Z M 197.316406 243.890625 C 199.375 232.035156 200.980469 222.402344 200.4375 222.285156 C 199.910156 222.171875 197.429688 231.652344 195.363281 243.546875 C 193.285156 255.445312 192.414062 265.207031 192.945312 265.277344 C 193.496094 265.355469 195.246094 255.746094 197.316406 243.890625 Z M 186.816406 234.09375 C 188.070312 237.050781 189.550781 241.472656 190.519531 247.140625 C 191.539062 252.792969 192.03125 259.652344 192.523438 267.289062 C 193.019531 274.921875 193.472656 283.320312 193.769531 292.144531 C 194.382812 309.789062 194.300781 325.777344 194.089844 337.351562 C 193.96875 343.136719 193.875 347.824219 193.808594 351.0625 C 193.742188 354.300781 193.769531 356.097656 193.90625 356.105469 C 194.046875 356.113281 194.277344 354.332031 194.578125 351.101562 C 194.871094 347.871094 195.203125 343.191406 195.488281 337.398438 C 196.0625 325.8125 196.363281 309.773438 195.753906 292.074219 C 195.453125 283.226562 194.949219 274.804688 194.351562 267.160156 C 193.753906 259.523438 193.109375 252.601562 191.898438 246.875 C 190.730469 241.140625 189.007812 236.675781 187.511719 233.769531 C 186.015625 230.859375 184.871094 229.445312 184.785156 229.503906 C 184.640625 229.589844 185.558594 231.136719 186.816406 234.09375 Z M 148.25 351.382812 C 149.828125 349.957031 152.261719 347.996094 155.707031 346.441406 C 156.136719 346.246094 156.582031 346.0625 157.042969 345.882812 C 157.492188 345.699219 158.046875 345.53125 158.609375 345.125 C 158.886719 344.925781 159.164062 344.640625 159.355469 344.316406 C 159.546875 343.988281 159.660156 343.648438 159.734375 343.324219 C 159.878906 342.667969 159.890625 342.109375 159.945312 341.550781 C 160.125 339.28125 160.320312 336.851562 160.523438 334.300781 C 160.917969 329.199219 161.320312 323.585938 161.71875 317.6875 C 162.511719 305.898438 163.121094 295.21875 163.460938 287.480469 C 163.800781 279.742188 163.878906 274.945312 163.601562 274.929688 C 163.328125 274.910156 162.761719 279.671875 162.0625 287.386719 C 161.363281 295.097656 160.535156 305.765625 159.742188 317.554688 C 159.34375 323.449219 158.996094 329.070312 158.699219 334.175781 C 158.5625 336.734375 158.429688 339.164062 158.304688 341.4375 C 158.269531 342.007812 158.261719 342.574219 158.179688 342.992188 C 158.089844 343.433594 157.96875 343.683594 157.6875 343.90625 C 157.402344 344.136719 156.960938 344.316406 156.484375 344.523438 C 156.007812 344.734375 155.546875 344.953125 155.101562 345.175781 C 151.546875 346.988281 149.152344 349.203125 147.699219 350.84375 C 146.246094 352.496094 145.675781 353.578125 145.769531 353.648438 C 145.894531 353.742188 146.671875 352.824219 148.25 351.382812 Z M 162.773438 363.484375 C 163.175781 362.191406 163.941406 360.5 165.125 358.765625 C 166.292969 357.027344 167.558594 355.492188 168.367188 354.292969 C 168.757812 353.714844 169.058594 353.324219 169.3125 353.070312 C 169.5625 352.8125 169.753906 352.671875 169.734375 352.53125 C 169.71875 352.402344 169.453125 352.277344 168.96875 352.378906 C 168.488281 352.472656 167.878906 352.851562 167.320312 353.359375 C 166.238281 354.335938 164.777344 355.742188 163.472656 357.660156 C 162.164062 359.574219 161.46875 361.6875 161.394531 363.238281 C 161.300781 364.804688 161.699219 365.722656 161.953125 365.691406 C 162.242188 365.664062 162.359375 364.777344 162.773438 363.484375 Z M 151.164062 362.308594 C 151.488281 360.902344 151.921875 358.996094 152.804688 357.117188 C 153.683594 355.25 154.921875 353.816406 155.960938 352.933594 C 156.988281 352.035156 157.800781 351.609375 157.71875 351.328125 C 157.664062 351.085938 156.628906 351.03125 155.183594 351.761719 C 153.75 352.46875 152.050781 354.054688 151.011719 356.269531 C 149.976562 358.472656 149.746094 360.652344 149.769531 362.164062 C 149.796875 363.6875 150.058594 364.609375 150.324219 364.613281 C 150.605469 364.621094 150.84375 363.710938 151.164062 362.308594 Z M 225.761719 99.269531 C 221.0625 84.253906 214.023438 98.222656 214.023438 98.222656 C 218.96875 95.246094 225.761719 99.269531 225.761719 99.269531 Z M 191.621094 98.035156 C 191.621094 98.035156 186.800781 79.304688 177.160156 96.207031 C 177.160156 96.207031 186.425781 93.136719 191.621094 98.035156 Z M 225.789062 125.734375 L 223.824219 131.191406 C 224.335938 131.707031 225.4375 132.632812 226.738281 132.625 C 227.832031 132.621094 228.910156 131.9375 229.945312 130.605469 C 230.242188 130.226562 230.789062 130.15625 231.167969 130.453125 C 231.550781 130.746094 231.621094 131.292969 231.324219 131.675781 C 229.945312 133.460938 228.398438 134.367188 226.726562 134.371094 C 226.726562 134.371094 226.726562 134.371094 226.722656 134.371094 C 224.910156 134.371094 223.472656 133.28125 222.714844 132.554688 C 220.476562 134.148438 212.804688 139.105469 204.042969 139.105469 C 202.6875 139.105469 201.308594 138.984375 199.917969 138.71875 C 193.453125 137.472656 188.074219 133.226562 183.929688 126.097656 C 183.683594 125.679688 183.828125 125.148438 184.242188 124.90625 C 184.660156 124.664062 185.195312 124.804688 185.4375 125.222656 C 189.316406 131.894531 194.296875 135.855469 200.238281 137.003906 C 210.484375 138.984375 220.574219 131.960938 222.089844 130.847656 L 223.945312 125.703125 C 223.707031 125.679688 223.574219 125.660156 223.574219 125.660156 C 216.589844 124.664062 215.59375 113.699219 215.59375 113.699219 C 224.566406 109.710938 235.039062 113.445312 235.039062 113.445312 C 235.582031 123.777344 229.273438 125.542969 225.789062 125.734375 " fill-opacity="1" fill-rule="nonzero"/></svg>