<?xml version="1.0" encoding="UTF-8"?><svg xmlns="http://www.w3.org/2000/svg" xmlns:xlink="http://www.w3.org/1999/xlink" contentScriptType="text/ecmascript" width="375" zoomAndPan="magnify" contentStyleType="text/css" viewBox="0 0 375 374.999991" height="374.999991" preserveAspectRatio="xMidYMid meet" version="1.0"><defs><filter x="0%" y="0%" width="100%" xmlns:xlink="http://www.w3.org/1999/xlink" xlink:type="simple" xlink:actuate="onLoad" height="100%" id="filter-remove-color" xlink:show="other"><feColorMatrix values="0 0 0 0 1 0 0 0 0 1 0 0 0 0 1 0 0 0 1 0" color-interpolation-filters="sRGB"/></filter><mask id="mask-0"><g filter="url(#filter-remove-color)"><rect x="-37.5" width="450" fill="rgb(0%, 0%, 0%)" y="-37.499999" height="449.999989" fill-opacity="0.2471"/></g></mask><clipPath id="clip-0"><rect x="0" width="113" y="0" height="193"/></clipPath><mask id="mask-1"><g filter="url(#filter-remove-color)"><rect x="-37.5" width="450" fill="rgb(0%, 0%, 0%)" y="-37.499999" height="449.999989" fill-opacity="0.2471"/></g></mask><clipPath id="clip-1"><rect x="0" width="112" y="0" height="193"/></clipPath><mask id="mask-2"><g filter="url(#filter-remove-color)"><rect x="-37.5" width="450" fill="rgb(0%, 0%, 0%)" y="-37.499999" height="449.999989" fill-opacity="0.2471"/></g></mask><clipPath id="clip-2"><rect x="0" width="112" y="0" height="193"/></clipPath><mask id="mask-3"><g filter="url(#filter-remove-color)"><rect x="-37.5" width="450" fill="rgb(0%, 0%, 0%)" y="-37.499999" height="449.999989" fill-opacity="0.2471"/></g></mask><clipPath id="clip-3"><rect x="0" width="113" y="0" height="188"/></clipPath><mask id="mask-4"><g filter="url(#filter-remove-color)"><rect x="-37.5" width="450" fill="rgb(0%, 0%, 0%)" y="-37.499999" height="449.999989" fill-opacity="0.2471"/></g></mask><clipPath id="clip-4"><rect x="0" width="112" y="0" height="193"/></clipPath><mask id="mask-5"><g filter="url(#filter-remove-color)"><rect x="-37.5" width="450" fill="rgb(0%, 0%, 0%)" y="-37.499999" height="449.999989" fill-opacity="0.2471"/></g></mask><clipPath id="clip-5"><rect x="0" width="113" y="0" height="193"/></clipPath></defs><rect x="-37.5" width="450" fill="rgb(100%, 100%, 100%)" y="-37.499999" height="449.999989" fill-opacity="1"/><rect x="-37.5" width="450" fill="rgb(100%, 100%, 100%)" y="-37.499999" height="449.999989" fill-opacity="1"/><rect x="-37.5" width="450" fill="rgb(100%, 100%, 100%)" y="-37.499999" height="449.999989" fill-opacity="1"/><g mask="url(#mask-0)"><g><g id="source-5" clip-path="url(#clip-0)"><path fill="rgb(100%, 74.119568%, 34.899902%)" d="M 42.976562 87.78125 C 42.902344 87.742188 42.824219 87.703125 42.746094 87.667969 C 39.472656 86.589844 36.105469 88.910156 34.34375 91.613281 C 32.617188 93.992188 31.957031 97.886719 34.429688 99.953125 C 34.789062 100.246094 35.226562 100.4375 35.679688 100.539062 C 39.636719 101.195312 43.296875 97.980469 44.601562 94.394531 C 45.617188 92.171875 45.277344 88.976562 42.976562 87.78125 Z M 30.222656 81.113281 C 28.335938 80.164062 25.859375 81.296875 24.597656 82.9375 C 22.0625 86.164062 21.277344 91.445312 24.332031 94.535156 C 24.636719 94.796875 24.984375 94.992188 25.363281 95.125 C 28.058594 96.035156 30.621094 93.785156 31.738281 91.460938 C 33.273438 88.425781 33.601562 84.140625 30.988281 81.652344 C 30.746094 81.429688 30.492188 81.25 30.222656 81.113281 Z M 45.566406 102.378906 C 42.242188 100.847656 38.289062 102.921875 36.339844 105.789062 C 34.734375 107.753906 34.308594 111.304688 36.683594 112.800781 C 40.144531 114.601562 44.496094 112.136719 46.320312 108.984375 C 47.675781 106.980469 47.828125 103.746094 45.566406 102.378906 Z M 17.015625 87.992188 C 15.652344 87.246094 13.859375 87.355469 12.65625 88.527344 C 9.429688 91.660156 9.257812 97.722656 12.773438 100.632812 C 14.265625 101.800781 16.398438 101.292969 17.636719 99.972656 C 20.273438 97.140625 20.558594 92.359375 18.355469 89.25 C 18.015625 88.710938 17.550781 88.285156 17.015625 87.992188 Z M 27.800781 102.496094 C 25.113281 101.0625 21.644531 100.980469 18.804688 102.105469 C 15.636719 103.492188 12.601562 105.457031 10.375 108.15625 C 8.472656 109.9375 8.78125 113.332031 11.066406 114.578125 C 13.785156 116.136719 17.191406 115.488281 20.015625 116.816406 C 22.535156 117.707031 23.960938 120.054688 25.621094 121.980469 C 26.988281 123.707031 29.613281 124.734375 31.566406 123.277344 C 33.351562 121.679688 33.433594 119 33.507812 116.773438 C 33.265625 112.960938 32.972656 108.933594 31.011719 105.582031 C 30.238281 104.222656 29.113281 103.199219 27.800781 102.496094 Z M 27.800781 102.496094 " fill-opacity="1" fill-rule="nonzero"/><path fill="rgb(100%, 74.119568%, 34.899902%)" d="M 92.035156 13.183594 C 91.960938 13.144531 91.882812 13.109375 91.804688 13.074219 C 88.53125 11.992188 85.160156 14.316406 83.402344 17.015625 C 81.675781 19.394531 81.015625 23.292969 83.484375 25.355469 C 83.847656 25.652344 84.285156 25.839844 84.738281 25.945312 C 88.695312 26.601562 92.355469 23.386719 93.660156 19.800781 C 94.675781 17.574219 94.335938 14.382812 92.035156 13.183594 Z M 79.28125 6.519531 C 77.394531 5.566406 74.917969 6.703125 73.65625 8.339844 C 71.117188 11.570312 70.335938 16.851562 73.390625 19.941406 C 73.691406 20.199219 74.042969 20.398438 74.417969 20.53125 C 77.117188 21.4375 79.679688 19.191406 80.792969 16.863281 C 82.332031 13.832031 82.660156 9.546875 80.042969 7.058594 C 79.804688 6.832031 79.550781 6.65625 79.28125 6.519531 Z M 94.625 27.785156 C 91.300781 26.253906 87.34375 28.324219 85.394531 31.195312 C 83.792969 33.15625 83.367188 36.707031 85.738281 38.207031 C 89.203125 40.007812 93.554688 37.542969 95.375 34.386719 C 96.734375 32.382812 96.886719 29.148438 94.625 27.785156 Z M 66.074219 13.398438 C 64.710938 12.652344 62.917969 12.761719 61.710938 13.929688 C 58.488281 17.0625 58.316406 23.128906 61.832031 26.035156 C 63.320312 27.203125 65.457031 26.699219 66.695312 25.378906 C 69.332031 22.542969 69.613281 17.765625 67.414062 14.65625 C 67.074219 14.113281 66.605469 13.691406 66.074219 13.398438 Z M 76.859375 27.902344 C 74.171875 26.46875 70.703125 26.386719 67.859375 27.507812 C 64.695312 28.898438 61.660156 30.859375 59.429688 33.558594 C 57.53125 35.34375 57.839844 38.734375 60.125 39.980469 C 62.84375 41.539062 66.25 40.890625 69.070312 42.222656 C 71.59375 43.113281 73.019531 45.457031 74.679688 47.386719 C 76.046875 49.113281 78.667969 50.140625 80.625 48.683594 C 82.40625 47.085938 82.492188 44.40625 82.5625 42.175781 C 82.320312 38.367188 82.03125 34.339844 80.070312 30.988281 C 79.296875 29.625 78.171875 28.601562 76.859375 27.902344 Z M 76.859375 27.902344 " fill-opacity="1" fill-rule="nonzero"/><path fill="rgb(100%, 74.119568%, 34.899902%)" d="M 100.085938 73.945312 C 100.011719 73.90625 99.933594 73.871094 99.855469 73.835938 C 96.585938 72.753906 93.214844 75.078125 91.457031 77.777344 C 89.726562 80.15625 89.070312 84.050781 91.539062 86.117188 C 91.898438 86.414062 92.339844 86.601562 92.789062 86.707031 C 96.75 87.363281 100.40625 84.148438 101.714844 80.5625 C 102.726562 78.335938 102.386719 75.140625 100.085938 73.945312 Z M 87.332031 67.28125 C 85.449219 66.328125 82.96875 67.464844 81.707031 69.101562 C 79.171875 72.332031 78.390625 77.613281 81.441406 80.703125 C 81.746094 80.960938 82.09375 81.160156 82.472656 81.292969 C 85.167969 82.199219 87.730469 79.953125 88.847656 77.625 C 90.382812 74.59375 90.710938 70.308594 88.097656 67.820312 C 87.855469 67.59375 87.601562 67.417969 87.332031 67.28125 Z M 102.675781 88.546875 C 99.355469 87.015625 95.398438 89.085938 93.449219 91.957031 C 91.84375 93.917969 91.417969 97.46875 93.792969 98.96875 C 97.257812 100.769531 101.605469 98.304688 103.429688 95.148438 C 104.785156 93.144531 104.9375 89.910156 102.675781 88.546875 Z M 74.125 74.160156 C 72.761719 73.414062 70.96875 73.523438 69.765625 74.691406 C 66.539062 77.824219 66.367188 83.890625 69.882812 86.796875 C 71.375 87.964844 73.507812 87.460938 74.746094 86.136719 C 77.382812 83.304688 77.667969 78.527344 75.464844 75.417969 C 75.128906 74.875 74.660156 74.453125 74.125 74.160156 Z M 84.910156 88.664062 C 82.222656 87.230469 78.753906 87.148438 75.914062 88.269531 C 72.746094 89.660156 69.710938 91.621094 67.484375 94.320312 C 65.582031 96.105469 65.890625 99.496094 68.179688 100.742188 C 70.894531 102.300781 74.300781 101.652344 77.125 102.984375 C 79.644531 103.871094 81.070312 106.21875 82.730469 108.144531 C 84.101562 109.875 86.722656 110.902344 88.679688 109.445312 C 90.460938 107.847656 90.542969 105.167969 90.617188 102.9375 C 90.375 99.125 90.082031 95.101562 88.121094 91.75 C 87.347656 90.386719 86.222656 89.363281 84.910156 88.664062 Z M 84.910156 88.664062 " fill-opacity="1" fill-rule="nonzero"/><path fill="rgb(100%, 74.119568%, 34.899902%)" d="M 57.5625 151.085938 C 57.488281 151.046875 57.410156 151.007812 57.332031 150.972656 C 54.058594 149.894531 50.6875 152.214844 48.929688 154.917969 C 47.203125 157.292969 46.542969 161.191406 49.011719 163.257812 C 49.375 163.550781 49.8125 163.738281 50.265625 163.84375 C 54.222656 164.5 57.878906 161.285156 59.1875 157.699219 C 60.203125 155.476562 59.859375 152.28125 57.5625 151.085938 Z M 44.804688 144.417969 C 42.921875 143.464844 40.445312 144.601562 39.183594 146.242188 C 36.644531 149.46875 35.863281 154.75 38.917969 157.839844 C 39.21875 158.097656 39.570312 158.296875 39.945312 158.429688 C 42.644531 159.339844 45.203125 157.089844 46.320312 154.765625 C 47.859375 151.730469 48.1875 147.445312 45.570312 144.957031 C 45.332031 144.730469 45.074219 144.554688 44.804688 144.417969 Z M 60.152344 165.683594 C 56.828125 164.152344 52.871094 166.222656 50.921875 169.09375 C 49.316406 171.058594 48.894531 174.605469 51.265625 176.105469 C 54.730469 177.90625 59.082031 175.441406 60.902344 172.289062 C 62.261719 170.285156 62.414062 167.046875 60.152344 165.683594 Z M 31.601562 151.296875 C 30.238281 150.550781 28.445312 150.660156 27.238281 151.832031 C 24.015625 154.964844 23.839844 161.027344 27.355469 163.9375 C 28.847656 165.105469 30.984375 164.597656 32.21875 163.277344 C 34.859375 160.445312 35.140625 155.664062 32.941406 152.554688 C 32.601562 152.015625 32.132812 151.589844 31.601562 151.296875 Z M 42.382812 165.800781 C 39.699219 164.367188 36.230469 164.285156 33.386719 165.410156 C 30.222656 166.796875 27.183594 168.757812 24.957031 171.460938 C 23.054688 173.242188 23.367188 176.636719 25.652344 177.882812 C 28.371094 179.441406 31.777344 178.792969 34.597656 180.121094 C 37.121094 181.011719 38.546875 183.359375 40.207031 185.285156 C 41.574219 187.011719 44.195312 188.039062 46.152344 186.582031 C 47.933594 184.984375 48.015625 182.304688 48.089844 180.078125 C 47.847656 176.265625 47.554688 172.238281 45.597656 168.886719 C 44.820312 167.527344 43.695312 166.503906 42.382812 165.800781 Z M 42.382812 165.800781 " fill-opacity="1" fill-rule="nonzero"/></g></g></g><g mask="url(#mask-1)"><g transform="matrix(1, 0, 0, 1, 132, 0)"><g id="source-8" clip-path="url(#clip-1)"><path fill="rgb(100%, 74.119568%, 34.899902%)" d="M 42.625 87.78125 C 42.550781 87.742188 42.472656 87.703125 42.394531 87.667969 C 39.121094 86.589844 35.75 88.910156 33.992188 91.613281 C 32.265625 93.992188 31.605469 97.886719 34.074219 99.953125 C 34.4375 100.246094 34.875 100.4375 35.328125 100.539062 C 39.285156 101.195312 42.945312 97.980469 44.25 94.394531 C 45.265625 92.171875 44.925781 88.976562 42.625 87.78125 Z M 29.867188 81.113281 C 27.984375 80.164062 25.507812 81.296875 24.246094 82.9375 C 21.707031 86.164062 20.925781 91.445312 23.980469 94.535156 C 24.28125 94.796875 24.632812 94.992188 25.007812 95.125 C 27.707031 96.035156 30.265625 93.785156 31.382812 91.460938 C 32.921875 88.425781 33.25 84.140625 30.632812 81.652344 C 30.394531 81.429688 30.136719 81.25 29.867188 81.113281 Z M 45.214844 102.378906 C 41.890625 100.847656 37.933594 102.921875 35.984375 105.789062 C 34.378906 107.753906 33.957031 111.304688 36.328125 112.800781 C 39.792969 114.601562 44.144531 112.136719 45.964844 108.984375 C 47.324219 106.980469 47.476562 103.746094 45.214844 102.378906 Z M 16.664062 87.992188 C 15.300781 87.246094 13.507812 87.355469 12.300781 88.527344 C 9.078125 91.660156 8.902344 97.722656 12.421875 100.632812 C 13.910156 101.800781 16.046875 101.292969 17.285156 99.972656 C 19.921875 97.140625 20.203125 92.359375 18.003906 89.25 C 17.664062 88.710938 17.195312 88.285156 16.664062 87.992188 Z M 27.449219 102.496094 C 24.761719 101.0625 21.292969 100.980469 18.449219 102.105469 C 15.285156 103.492188 12.246094 105.457031 10.019531 108.15625 C 8.121094 109.9375 8.429688 113.332031 10.714844 114.578125 C 13.433594 116.136719 16.839844 115.488281 19.660156 116.816406 C 22.183594 117.707031 23.609375 120.054688 25.269531 121.980469 C 26.636719 123.707031 29.257812 124.734375 31.214844 123.277344 C 32.996094 121.679688 33.082031 119 33.15625 116.773438 C 32.910156 112.960938 32.617188 108.933594 30.660156 105.582031 C 29.886719 104.222656 28.757812 103.199219 27.449219 102.496094 Z M 27.449219 102.496094 " fill-opacity="1" fill-rule="nonzero"/><path fill="rgb(100%, 74.119568%, 34.899902%)" d="M 91.683594 13.183594 C 91.605469 13.144531 91.53125 13.109375 91.453125 13.074219 C 88.179688 11.992188 84.808594 14.316406 83.050781 17.015625 C 81.320312 19.394531 80.664062 23.292969 83.132812 25.355469 C 83.492188 25.652344 83.933594 25.839844 84.382812 25.945312 C 88.34375 26.601562 92 23.386719 93.308594 19.800781 C 94.324219 17.574219 93.980469 14.382812 91.679688 13.183594 Z M 78.925781 6.519531 C 77.042969 5.566406 74.5625 6.703125 73.300781 8.339844 C 70.765625 11.570312 69.984375 16.851562 73.039062 19.941406 C 73.339844 20.199219 73.691406 20.398438 74.066406 20.53125 C 76.765625 21.4375 79.324219 19.191406 80.441406 16.863281 C 81.976562 13.832031 82.304688 9.546875 79.691406 7.058594 C 79.453125 6.832031 79.195312 6.65625 78.925781 6.519531 Z M 94.269531 27.785156 C 90.949219 26.253906 86.992188 28.324219 85.042969 31.195312 C 83.4375 33.15625 83.011719 36.707031 85.386719 38.207031 C 88.851562 40.007812 93.199219 37.542969 95.023438 34.386719 C 96.382812 32.382812 96.53125 29.148438 94.269531 27.785156 Z M 65.71875 13.398438 C 64.359375 12.652344 62.566406 12.761719 61.359375 13.929688 C 58.136719 17.0625 57.960938 23.128906 61.476562 26.035156 C 62.96875 27.203125 65.101562 26.699219 66.339844 25.378906 C 68.980469 22.542969 69.261719 17.765625 67.0625 14.65625 C 66.722656 14.113281 66.253906 13.691406 65.71875 13.398438 Z M 76.503906 27.902344 C 73.820312 26.46875 70.351562 26.386719 67.507812 27.507812 C 64.34375 28.898438 61.304688 30.859375 59.078125 33.558594 C 57.175781 35.34375 57.484375 38.734375 59.773438 39.980469 C 62.492188 41.539062 65.898438 40.890625 68.71875 42.222656 C 71.242188 43.113281 72.664062 45.457031 74.328125 47.386719 C 75.695312 49.113281 78.316406 50.140625 80.273438 48.683594 C 82.054688 47.085938 82.136719 44.40625 82.210938 42.175781 C 81.96875 38.367188 81.675781 34.339844 79.714844 30.988281 C 78.941406 29.625 77.816406 28.601562 76.503906 27.902344 Z M 76.503906 27.902344 " fill-opacity="1" fill-rule="nonzero"/><path fill="rgb(100%, 74.119568%, 34.899902%)" d="M 99.734375 73.945312 C 99.660156 73.90625 99.582031 73.871094 99.503906 73.835938 C 96.230469 72.753906 92.859375 75.078125 91.101562 77.777344 C 89.375 80.15625 88.714844 84.050781 91.183594 86.117188 C 91.546875 86.414062 91.984375 86.601562 92.4375 86.707031 C 96.394531 87.363281 100.054688 84.148438 101.359375 80.5625 C 102.375 78.335938 102.035156 75.140625 99.734375 73.945312 Z M 86.980469 67.28125 C 85.09375 66.328125 82.617188 67.464844 81.355469 69.101562 C 78.816406 72.332031 78.035156 77.613281 81.089844 80.703125 C 81.390625 80.960938 81.742188 81.160156 82.117188 81.292969 C 84.816406 82.199219 87.378906 79.953125 88.492188 77.625 C 90.03125 74.59375 90.359375 70.308594 87.742188 67.820312 C 87.503906 67.59375 87.25 67.417969 86.980469 67.28125 Z M 102.324219 88.546875 C 99 87.015625 95.042969 89.085938 93.09375 91.957031 C 91.492188 93.917969 91.066406 97.46875 93.4375 98.96875 C 96.902344 100.769531 101.253906 98.304688 103.074219 95.148438 C 104.433594 93.144531 104.585938 89.910156 102.324219 88.546875 Z M 73.773438 74.160156 C 72.410156 73.414062 70.617188 73.523438 69.410156 74.691406 C 66.1875 77.824219 66.015625 83.890625 69.53125 86.796875 C 71.023438 87.964844 73.15625 87.460938 74.394531 86.136719 C 77.03125 83.304688 77.3125 78.527344 75.113281 75.417969 C 74.773438 74.875 74.304688 74.453125 73.773438 74.160156 Z M 84.558594 88.664062 C 81.871094 87.230469 78.402344 87.148438 75.558594 88.269531 C 72.394531 89.660156 69.359375 91.621094 67.128906 94.320312 C 65.230469 96.105469 65.539062 99.496094 67.824219 100.742188 C 70.542969 102.300781 73.949219 101.652344 76.769531 102.984375 C 79.292969 103.871094 80.71875 106.21875 82.378906 108.144531 C 83.746094 109.875 86.367188 110.902344 88.324219 109.445312 C 90.105469 107.847656 90.191406 105.167969 90.265625 102.9375 C 90.019531 99.125 89.730469 95.101562 87.769531 91.75 C 86.996094 90.386719 85.871094 89.363281 84.558594 88.664062 Z M 84.558594 88.664062 " fill-opacity="1" fill-rule="nonzero"/><path fill="rgb(100%, 74.119568%, 34.899902%)" d="M 57.207031 151.085938 C 57.132812 151.046875 57.054688 151.007812 56.976562 150.972656 C 53.707031 149.894531 50.335938 152.214844 48.578125 154.917969 C 46.847656 157.292969 46.191406 161.191406 48.660156 163.257812 C 49.019531 163.550781 49.457031 163.738281 49.910156 163.84375 C 53.867188 164.5 57.527344 161.285156 58.835938 157.699219 C 59.847656 155.476562 59.507812 152.28125 57.207031 151.085938 Z M 44.453125 144.417969 C 42.566406 143.464844 40.089844 144.601562 38.828125 146.242188 C 36.292969 149.46875 35.511719 154.75 38.5625 157.839844 C 38.867188 158.097656 39.214844 158.296875 39.59375 158.429688 C 42.289062 159.339844 44.851562 157.089844 45.96875 154.765625 C 47.503906 151.730469 47.832031 147.445312 45.21875 144.957031 C 44.976562 144.730469 44.722656 144.554688 44.453125 144.417969 Z M 59.796875 165.683594 C 56.476562 164.152344 52.519531 166.222656 50.570312 169.09375 C 48.964844 171.058594 48.539062 174.605469 50.914062 176.105469 C 54.375 177.90625 58.726562 175.441406 60.550781 172.289062 C 61.90625 170.285156 62.058594 167.046875 59.796875 165.683594 Z M 31.246094 151.296875 C 29.882812 150.550781 28.089844 150.660156 26.886719 151.832031 C 23.660156 154.964844 23.488281 161.027344 27.003906 163.9375 C 28.496094 165.105469 30.628906 164.597656 31.867188 163.277344 C 34.503906 160.445312 34.789062 155.664062 32.585938 152.554688 C 32.25 152.015625 31.78125 151.589844 31.246094 151.296875 Z M 42.03125 165.800781 C 39.34375 164.367188 35.875 164.285156 33.035156 165.410156 C 29.867188 166.796875 26.832031 168.757812 24.605469 171.460938 C 22.703125 173.242188 23.011719 176.636719 25.300781 177.882812 C 28.015625 179.441406 31.421875 178.792969 34.246094 180.121094 C 36.765625 181.011719 38.191406 183.359375 39.851562 185.285156 C 41.21875 187.011719 43.84375 188.039062 45.800781 186.582031 C 47.582031 184.984375 47.664062 182.304688 47.738281 180.078125 C 47.496094 176.265625 47.203125 172.238281 45.242188 168.886719 C 44.46875 167.527344 43.34375 166.503906 42.03125 165.800781 Z M 42.03125 165.800781 " fill-opacity="1" fill-rule="nonzero"/></g></g></g><g mask="url(#mask-2)"><g transform="matrix(1, 0, 0, 1, 263, 0)"><g id="source-11" clip-path="url(#clip-2)"><path fill="rgb(100%, 74.119568%, 34.899902%)" d="M 43.269531 87.78125 C 43.195312 87.742188 43.117188 87.703125 43.039062 87.667969 C 39.769531 86.589844 36.398438 88.910156 34.640625 91.613281 C 32.910156 93.992188 32.253906 97.886719 34.722656 99.953125 C 35.082031 100.246094 35.523438 100.4375 35.972656 100.539062 C 39.933594 101.195312 43.589844 97.980469 44.898438 94.394531 C 45.914062 92.171875 45.570312 88.976562 43.269531 87.78125 Z M 30.515625 81.113281 C 28.632812 80.164062 26.152344 81.296875 24.890625 82.9375 C 22.355469 86.164062 21.574219 91.445312 24.628906 94.535156 C 24.929688 94.796875 25.28125 94.992188 25.65625 95.125 C 28.355469 96.035156 30.914062 93.785156 32.03125 91.460938 C 33.566406 88.425781 33.894531 84.140625 31.28125 81.652344 C 31.042969 81.429688 30.785156 81.25 30.515625 81.113281 Z M 45.859375 102.378906 C 42.539062 100.847656 38.582031 102.921875 36.632812 105.789062 C 35.027344 107.753906 34.605469 111.304688 36.976562 112.800781 C 40.441406 114.601562 44.789062 112.136719 46.613281 108.984375 C 47.96875 106.980469 48.125 103.746094 45.859375 102.378906 Z M 17.308594 87.992188 C 15.949219 87.246094 14.152344 87.355469 12.949219 88.527344 C 9.726562 91.660156 9.550781 97.722656 13.066406 100.632812 C 14.558594 101.800781 16.691406 101.292969 17.929688 99.972656 C 20.566406 97.140625 20.851562 92.359375 18.652344 89.25 C 18.3125 88.710938 17.84375 88.285156 17.308594 87.992188 Z M 28.09375 102.496094 C 25.40625 101.0625 21.941406 100.980469 19.097656 102.105469 C 15.929688 103.492188 12.894531 105.457031 10.667969 108.15625 C 8.765625 109.9375 9.074219 113.332031 11.363281 114.578125 C 14.082031 116.136719 17.484375 115.488281 20.308594 116.816406 C 22.828125 117.707031 24.253906 120.054688 25.917969 121.980469 C 27.28125 123.707031 29.90625 124.734375 31.863281 123.277344 C 33.644531 121.679688 33.726562 119 33.800781 116.773438 C 33.558594 112.960938 33.265625 108.933594 31.304688 105.582031 C 30.53125 104.222656 29.40625 103.199219 28.09375 102.496094 Z M 28.09375 102.496094 " fill-opacity="1" fill-rule="nonzero"/><path fill="rgb(100%, 74.119568%, 34.899902%)" d="M 92.328125 13.183594 C 92.253906 13.144531 92.175781 13.109375 92.097656 13.074219 C 88.824219 11.992188 85.457031 14.316406 83.695312 17.015625 C 81.96875 19.394531 81.308594 23.292969 83.78125 25.355469 C 84.140625 25.652344 84.578125 25.839844 85.03125 25.945312 C 88.988281 26.601562 92.648438 23.386719 93.953125 19.800781 C 94.96875 17.574219 94.628906 14.382812 92.328125 13.183594 Z M 79.574219 6.519531 C 77.6875 5.566406 75.210938 6.703125 73.949219 8.339844 C 71.410156 11.570312 70.628906 16.851562 73.683594 19.941406 C 73.984375 20.199219 74.335938 20.398438 74.710938 20.53125 C 77.410156 21.4375 79.972656 19.191406 81.089844 16.863281 C 82.625 13.832031 82.953125 9.546875 80.339844 7.058594 C 80.097656 6.832031 79.84375 6.65625 79.574219 6.519531 Z M 94.917969 27.785156 C 91.59375 26.253906 87.640625 28.324219 85.691406 31.195312 C 84.085938 33.15625 83.660156 36.707031 86.035156 38.207031 C 89.496094 40.007812 93.847656 37.542969 95.671875 34.386719 C 97.027344 32.382812 97.179688 29.148438 94.917969 27.785156 Z M 66.367188 13.398438 C 65.003906 12.652344 63.210938 12.761719 62.003906 13.929688 C 58.78125 17.0625 58.609375 23.128906 62.125 26.035156 C 63.617188 27.203125 65.75 26.699219 66.988281 25.378906 C 69.625 22.542969 69.910156 17.765625 67.707031 14.65625 C 67.367188 14.113281 66.898438 13.691406 66.367188 13.398438 Z M 77.152344 27.902344 C 74.464844 26.46875 70.996094 26.386719 68.152344 27.507812 C 64.988281 28.898438 61.953125 30.859375 59.726562 33.558594 C 57.824219 35.34375 58.132812 38.734375 60.417969 39.980469 C 63.136719 41.539062 66.542969 40.890625 69.363281 42.222656 C 71.886719 43.113281 73.3125 45.457031 74.972656 47.386719 C 76.339844 49.113281 78.964844 50.140625 80.917969 48.683594 C 82.703125 47.085938 82.785156 44.40625 82.859375 42.175781 C 82.617188 38.367188 82.324219 34.339844 80.363281 30.988281 C 79.589844 29.625 78.464844 28.601562 77.152344 27.902344 Z M 77.152344 27.902344 " fill-opacity="1" fill-rule="nonzero"/><path fill="rgb(100%, 74.119568%, 34.899902%)" d="M 100.382812 73.945312 C 100.304688 73.90625 100.230469 73.871094 100.152344 73.835938 C 96.878906 72.753906 93.507812 75.078125 91.75 77.777344 C 90.019531 80.15625 89.363281 84.050781 91.832031 86.117188 C 92.195312 86.414062 92.632812 86.601562 93.082031 86.707031 C 97.042969 87.363281 100.699219 84.148438 102.007812 80.5625 C 103.023438 78.335938 102.679688 75.140625 100.382812 73.945312 Z M 87.625 67.28125 C 85.742188 66.328125 83.261719 67.464844 82.003906 69.101562 C 79.464844 72.332031 78.683594 77.613281 81.734375 80.703125 C 82.039062 80.960938 82.390625 81.160156 82.765625 81.292969 C 85.464844 82.199219 88.023438 79.953125 89.140625 77.625 C 90.675781 74.59375 91.003906 70.308594 88.390625 67.820312 C 88.152344 67.59375 87.894531 67.417969 87.625 67.28125 Z M 102.96875 88.546875 C 99.648438 87.015625 95.691406 89.085938 93.742188 91.957031 C 92.136719 93.917969 91.714844 97.46875 94.085938 98.96875 C 97.550781 100.769531 101.898438 98.304688 103.722656 95.148438 C 105.082031 93.144531 105.234375 89.910156 102.96875 88.546875 Z M 74.421875 74.160156 C 73.058594 73.414062 71.265625 73.523438 70.058594 74.691406 C 66.835938 77.824219 66.660156 83.890625 70.175781 86.796875 C 71.667969 87.964844 73.804688 87.460938 75.039062 86.136719 C 77.679688 83.304688 77.960938 78.527344 75.761719 75.417969 C 75.421875 74.875 74.953125 74.453125 74.421875 74.160156 Z M 85.203125 88.664062 C 82.519531 87.230469 79.050781 87.148438 76.207031 88.269531 C 73.042969 89.660156 70.003906 91.621094 67.777344 94.320312 C 65.875 96.105469 66.183594 99.496094 68.472656 100.742188 C 71.191406 102.300781 74.597656 101.652344 77.417969 102.984375 C 79.941406 103.871094 81.363281 106.21875 83.027344 108.144531 C 84.394531 109.875 87.015625 110.902344 88.972656 109.445312 C 90.753906 107.847656 90.835938 105.167969 90.910156 102.9375 C 90.667969 99.125 90.375 95.101562 88.414062 91.75 C 87.640625 90.386719 86.515625 89.363281 85.203125 88.664062 Z M 85.203125 88.664062 " fill-opacity="1" fill-rule="nonzero"/><path fill="rgb(100%, 74.119568%, 34.899902%)" d="M 57.855469 151.085938 C 57.78125 151.046875 57.703125 151.007812 57.625 150.972656 C 54.351562 149.894531 50.984375 152.214844 49.222656 154.917969 C 47.496094 157.292969 46.835938 161.191406 49.304688 163.257812 C 49.667969 163.550781 50.105469 163.738281 50.558594 163.84375 C 54.515625 164.5 58.175781 161.285156 59.480469 157.699219 C 60.496094 155.476562 60.15625 152.28125 57.855469 151.085938 Z M 45.101562 144.417969 C 43.214844 143.464844 40.738281 144.601562 39.476562 146.242188 C 36.9375 149.46875 36.15625 154.75 39.210938 157.839844 C 39.511719 158.097656 39.863281 158.296875 40.238281 158.429688 C 42.9375 159.339844 45.5 157.089844 46.613281 154.765625 C 48.152344 151.730469 48.480469 147.445312 45.863281 144.957031 C 45.625 144.730469 45.371094 144.554688 45.101562 144.417969 Z M 60.445312 165.683594 C 57.121094 164.152344 53.164062 166.222656 51.214844 169.09375 C 49.613281 171.058594 49.1875 174.605469 51.558594 176.105469 C 55.023438 177.90625 59.375 175.441406 61.195312 172.289062 C 62.554688 170.285156 62.707031 167.046875 60.445312 165.683594 Z M 31.894531 151.296875 C 30.53125 150.550781 28.738281 150.660156 27.53125 151.832031 C 24.308594 154.964844 24.136719 161.027344 27.652344 163.9375 C 29.140625 165.105469 31.277344 164.597656 32.515625 163.277344 C 35.152344 160.445312 35.433594 155.664062 33.234375 152.554688 C 32.894531 152.015625 32.425781 151.589844 31.894531 151.296875 Z M 42.679688 165.800781 C 39.992188 164.367188 36.523438 164.285156 33.679688 165.410156 C 30.515625 166.796875 27.480469 168.757812 25.25 171.460938 C 23.351562 173.242188 23.660156 176.636719 25.945312 177.882812 C 28.664062 179.441406 32.070312 178.792969 34.890625 180.121094 C 37.414062 181.011719 38.839844 183.359375 40.5 185.285156 C 41.867188 187.011719 44.488281 188.039062 46.445312 186.582031 C 48.226562 184.984375 48.3125 182.304688 48.382812 180.078125 C 48.140625 176.265625 47.851562 172.238281 45.890625 168.886719 C 45.117188 167.527344 43.992188 166.503906 42.679688 165.800781 Z M 42.679688 165.800781 " fill-opacity="1" fill-rule="nonzero"/></g></g></g><g mask="url(#mask-3)"><g transform="matrix(1, 0, 0, 1, 0, 187)"><g id="source-14" clip-path="url(#clip-3)"><path fill="rgb(100%, 74.119568%, 34.899902%)" d="M 42.976562 88.28125 C 42.902344 88.242188 42.824219 88.203125 42.746094 88.167969 C 39.472656 87.089844 36.105469 89.410156 34.34375 92.113281 C 32.617188 94.492188 31.957031 98.386719 34.429688 100.453125 C 34.789062 100.746094 35.226562 100.9375 35.679688 101.039062 C 39.636719 101.695312 43.296875 98.480469 44.601562 94.894531 C 45.617188 92.671875 45.277344 89.476562 42.976562 88.28125 Z M 30.222656 81.613281 C 28.335938 80.664062 25.859375 81.796875 24.597656 83.4375 C 22.0625 86.664062 21.277344 91.945312 24.332031 95.035156 C 24.636719 95.296875 24.984375 95.492188 25.363281 95.625 C 28.058594 96.535156 30.621094 94.285156 31.738281 91.960938 C 33.273438 88.925781 33.601562 84.640625 30.988281 82.152344 C 30.746094 81.929688 30.492188 81.75 30.222656 81.613281 Z M 45.566406 102.878906 C 42.242188 101.347656 38.289062 103.421875 36.339844 106.289062 C 34.734375 108.253906 34.308594 111.804688 36.683594 113.300781 C 40.144531 115.101562 44.496094 112.636719 46.320312 109.484375 C 47.675781 107.480469 47.828125 104.246094 45.566406 102.878906 Z M 17.015625 88.492188 C 15.652344 87.746094 13.859375 87.855469 12.65625 89.027344 C 9.429688 92.160156 9.257812 98.222656 12.773438 101.132812 C 14.265625 102.300781 16.398438 101.792969 17.636719 100.472656 C 20.273438 97.640625 20.558594 92.859375 18.355469 89.75 C 18.015625 89.210938 17.550781 88.785156 17.015625 88.492188 Z M 27.800781 102.996094 C 25.113281 101.5625 21.644531 101.480469 18.804688 102.605469 C 15.636719 103.992188 12.601562 105.957031 10.375 108.65625 C 8.472656 110.4375 8.78125 113.832031 11.066406 115.078125 C 13.785156 116.636719 17.191406 115.988281 20.015625 117.316406 C 22.535156 118.207031 23.960938 120.554688 25.621094 122.480469 C 26.988281 124.207031 29.613281 125.234375 31.566406 123.777344 C 33.351562 122.179688 33.433594 119.5 33.507812 117.273438 C 33.265625 113.460938 32.972656 109.433594 31.011719 106.082031 C 30.238281 104.722656 29.113281 103.699219 27.800781 102.996094 Z M 27.800781 102.996094 " fill-opacity="1" fill-rule="nonzero"/><path fill="rgb(100%, 74.119568%, 34.899902%)" d="M 92.035156 13.683594 C 91.960938 13.644531 91.882812 13.609375 91.804688 13.574219 C 88.53125 12.492188 85.160156 14.816406 83.402344 17.515625 C 81.675781 19.894531 81.015625 23.792969 83.484375 25.855469 C 83.847656 26.152344 84.285156 26.339844 84.738281 26.445312 C 88.695312 27.101562 92.355469 23.886719 93.660156 20.300781 C 94.675781 18.074219 94.335938 14.882812 92.035156 13.683594 Z M 79.28125 7.019531 C 77.394531 6.066406 74.917969 7.203125 73.65625 8.839844 C 71.117188 12.070312 70.335938 17.351562 73.390625 20.441406 C 73.691406 20.699219 74.042969 20.898438 74.417969 21.03125 C 77.117188 21.9375 79.679688 19.691406 80.792969 17.363281 C 82.332031 14.332031 82.660156 10.046875 80.042969 7.558594 C 79.804688 7.332031 79.550781 7.15625 79.28125 7.019531 Z M 94.625 28.285156 C 91.300781 26.753906 87.34375 28.824219 85.394531 31.695312 C 83.792969 33.65625 83.367188 37.207031 85.738281 38.707031 C 89.203125 40.507812 93.554688 38.042969 95.375 34.886719 C 96.734375 32.882812 96.886719 29.648438 94.625 28.285156 Z M 66.074219 13.898438 C 64.710938 13.152344 62.917969 13.261719 61.710938 14.429688 C 58.488281 17.5625 58.316406 23.628906 61.832031 26.535156 C 63.320312 27.703125 65.457031 27.199219 66.695312 25.878906 C 69.332031 23.042969 69.613281 18.265625 67.414062 15.15625 C 67.074219 14.613281 66.605469 14.191406 66.074219 13.898438 Z M 76.859375 28.402344 C 74.171875 26.96875 70.703125 26.886719 67.859375 28.007812 C 64.695312 29.398438 61.660156 31.359375 59.429688 34.058594 C 57.53125 35.84375 57.839844 39.234375 60.125 40.480469 C 62.84375 42.039062 66.25 41.390625 69.070312 42.722656 C 71.59375 43.613281 73.019531 45.957031 74.679688 47.886719 C 76.046875 49.613281 78.667969 50.640625 80.625 49.183594 C 82.40625 47.585938 82.492188 44.90625 82.5625 42.675781 C 82.320312 38.867188 82.03125 34.839844 80.070312 31.488281 C 79.296875 30.125 78.171875 29.101562 76.859375 28.402344 Z M 76.859375 28.402344 " fill-opacity="1" fill-rule="nonzero"/><path fill="rgb(100%, 74.119568%, 34.899902%)" d="M 100.085938 74.445312 C 100.011719 74.40625 99.933594 74.371094 99.855469 74.335938 C 96.585938 73.253906 93.214844 75.578125 91.457031 78.277344 C 89.726562 80.65625 89.070312 84.550781 91.539062 86.617188 C 91.898438 86.914062 92.339844 87.101562 92.789062 87.207031 C 96.75 87.863281 100.40625 84.648438 101.714844 81.0625 C 102.726562 78.835938 102.386719 75.640625 100.085938 74.445312 Z M 87.332031 67.78125 C 85.449219 66.828125 82.96875 67.964844 81.707031 69.601562 C 79.171875 72.832031 78.390625 78.113281 81.441406 81.203125 C 81.746094 81.460938 82.09375 81.660156 82.472656 81.792969 C 85.167969 82.699219 87.730469 80.453125 88.847656 78.125 C 90.382812 75.09375 90.710938 70.808594 88.097656 68.320312 C 87.855469 68.09375 87.601562 67.917969 87.332031 67.78125 Z M 102.675781 89.046875 C 99.355469 87.515625 95.398438 89.585938 93.449219 92.457031 C 91.84375 94.417969 91.417969 97.96875 93.792969 99.46875 C 97.257812 101.269531 101.605469 98.804688 103.429688 95.648438 C 104.785156 93.644531 104.9375 90.410156 102.675781 89.046875 Z M 74.125 74.660156 C 72.761719 73.914062 70.96875 74.023438 69.765625 75.191406 C 66.539062 78.324219 66.367188 84.390625 69.882812 87.296875 C 71.375 88.464844 73.507812 87.960938 74.746094 86.636719 C 77.382812 83.804688 77.667969 79.027344 75.464844 75.917969 C 75.128906 75.375 74.660156 74.953125 74.125 74.660156 Z M 84.910156 89.164062 C 82.222656 87.730469 78.753906 87.648438 75.914062 88.769531 C 72.746094 90.160156 69.710938 92.121094 67.484375 94.820312 C 65.582031 96.605469 65.890625 99.996094 68.179688 101.242188 C 70.894531 102.800781 74.300781 102.152344 77.125 103.484375 C 79.644531 104.371094 81.070312 106.71875 82.730469 108.644531 C 84.101562 110.375 86.722656 111.402344 88.679688 109.945312 C 90.460938 108.347656 90.542969 105.667969 90.617188 103.4375 C 90.375 99.625 90.082031 95.601562 88.121094 92.25 C 87.347656 90.886719 86.222656 89.863281 84.910156 89.164062 Z M 84.910156 89.164062 " fill-opacity="1" fill-rule="nonzero"/><path fill="rgb(100%, 74.119568%, 34.899902%)" d="M 57.5625 151.582031 C 57.488281 151.546875 57.410156 151.507812 57.332031 151.472656 C 54.058594 150.394531 50.6875 152.714844 48.929688 155.417969 C 47.203125 157.792969 46.542969 161.691406 49.011719 163.757812 C 49.375 164.050781 49.8125 164.238281 50.265625 164.34375 C 54.222656 165 57.878906 161.785156 59.1875 158.199219 C 60.203125 155.976562 59.859375 152.78125 57.5625 151.585938 Z M 44.804688 144.917969 C 42.921875 143.964844 40.445312 145.101562 39.183594 146.742188 C 36.644531 149.96875 35.863281 155.25 38.917969 158.339844 C 39.21875 158.597656 39.570312 158.796875 39.945312 158.929688 C 42.644531 159.839844 45.203125 157.589844 46.320312 155.265625 C 47.859375 152.230469 48.1875 147.945312 45.570312 145.457031 C 45.332031 145.230469 45.074219 145.054688 44.804688 144.917969 Z M 60.152344 166.183594 C 56.828125 164.652344 52.871094 166.722656 50.921875 169.59375 C 49.316406 171.558594 48.894531 175.105469 51.265625 176.605469 C 54.730469 178.40625 59.082031 175.941406 60.902344 172.789062 C 62.261719 170.785156 62.414062 167.546875 60.152344 166.183594 Z M 31.601562 151.796875 C 30.238281 151.050781 28.445312 151.160156 27.238281 152.332031 C 24.015625 155.464844 23.839844 161.527344 27.355469 164.4375 C 28.847656 165.605469 30.984375 165.097656 32.21875 163.777344 C 34.859375 160.945312 35.140625 156.164062 32.941406 153.054688 C 32.601562 152.515625 32.132812 152.089844 31.601562 151.796875 Z M 42.382812 166.300781 C 39.699219 164.867188 36.230469 164.785156 33.386719 165.910156 C 30.222656 167.296875 27.183594 169.257812 24.957031 171.960938 C 23.054688 173.742188 23.367188 177.136719 25.652344 178.382812 C 28.371094 179.941406 31.777344 179.292969 34.597656 180.621094 C 37.121094 181.511719 38.546875 183.859375 40.207031 185.785156 C 41.574219 187.511719 44.195312 188.539062 46.152344 187.082031 C 47.933594 185.484375 48.015625 182.804688 48.089844 180.578125 C 47.847656 176.765625 47.554688 172.738281 45.597656 169.386719 C 44.820312 168.027344 43.695312 167.003906 42.382812 166.300781 Z M 42.382812 166.300781 " fill-opacity="1" fill-rule="nonzero"/></g></g></g><g mask="url(#mask-4)"><g transform="matrix(1, 0, 0, 1, 132, 182)"><g id="source-17" clip-path="url(#clip-4)"><path fill="rgb(100%, 74.119568%, 34.899902%)" d="M 42.625 88.597656 C 42.550781 88.558594 42.472656 88.523438 42.394531 88.488281 C 39.121094 87.40625 35.75 89.730469 33.992188 92.429688 C 32.265625 94.808594 31.605469 98.703125 34.074219 100.769531 C 34.4375 101.0625 34.875 101.253906 35.328125 101.355469 C 39.285156 102.011719 42.945312 98.800781 44.25 95.210938 C 45.265625 92.988281 44.925781 89.792969 42.625 88.597656 Z M 29.867188 81.933594 C 27.984375 80.980469 25.507812 82.113281 24.246094 83.753906 C 21.707031 86.980469 20.925781 92.265625 23.980469 95.351562 C 24.28125 95.613281 24.632812 95.8125 25.007812 95.941406 C 27.707031 96.851562 30.265625 94.601562 31.382812 92.277344 C 32.921875 89.242188 33.25 84.960938 30.632812 82.472656 C 30.394531 82.246094 30.136719 82.066406 29.867188 81.933594 Z M 45.214844 103.195312 C 41.890625 101.664062 37.933594 103.738281 35.984375 106.605469 C 34.378906 108.570312 33.957031 112.121094 36.328125 113.617188 C 39.792969 115.421875 44.144531 112.953125 45.964844 109.800781 C 47.324219 107.796875 47.476562 104.5625 45.214844 103.195312 Z M 16.664062 88.8125 C 15.300781 88.0625 13.507812 88.171875 12.300781 89.34375 C 9.078125 92.476562 8.902344 98.539062 12.421875 101.449219 C 13.910156 102.617188 16.046875 102.113281 17.285156 100.789062 C 19.921875 97.957031 20.203125 93.175781 18.003906 90.070312 C 17.664062 89.527344 17.195312 89.101562 16.664062 88.8125 Z M 27.449219 103.3125 C 24.761719 101.882812 21.292969 101.796875 18.449219 102.921875 C 15.285156 104.308594 12.246094 106.273438 10.019531 108.972656 C 8.121094 110.757812 8.429688 114.148438 10.714844 115.394531 C 13.433594 116.953125 16.839844 116.304688 19.660156 117.632812 C 22.183594 118.523438 23.609375 120.871094 25.269531 122.796875 C 26.636719 124.527344 29.257812 125.550781 31.214844 124.09375 C 32.996094 122.496094 33.082031 119.816406 33.15625 117.589844 C 32.910156 113.777344 32.617188 109.75 30.660156 106.402344 C 29.886719 105.039062 28.757812 104.015625 27.449219 103.3125 Z M 27.449219 103.3125 " fill-opacity="1" fill-rule="nonzero"/><path fill="rgb(100%, 74.119568%, 34.899902%)" d="M 91.683594 14.003906 C 91.605469 13.964844 91.53125 13.925781 91.453125 13.890625 C 88.179688 12.8125 84.808594 15.132812 83.050781 17.835938 C 81.320312 20.214844 80.664062 24.109375 83.132812 26.175781 C 83.492188 26.46875 83.933594 26.65625 84.382812 26.761719 C 88.34375 27.417969 92 24.203125 93.308594 20.617188 C 94.324219 18.394531 93.980469 15.199219 91.679688 14.003906 Z M 78.925781 7.335938 C 77.042969 6.382812 74.5625 7.519531 73.300781 9.160156 C 70.765625 12.386719 69.984375 17.667969 73.039062 20.757812 C 73.339844 21.019531 73.691406 21.214844 74.066406 21.347656 C 76.765625 22.257812 79.324219 20.007812 80.441406 17.683594 C 81.976562 14.648438 82.304688 10.363281 79.691406 7.875 C 79.453125 7.648438 79.195312 7.472656 78.925781 7.335938 Z M 94.269531 28.601562 C 90.949219 27.070312 86.992188 29.140625 85.042969 32.011719 C 83.4375 33.976562 83.011719 37.523438 85.386719 39.023438 C 88.851562 40.824219 93.199219 38.359375 95.023438 35.207031 C 96.382812 33.203125 96.53125 29.964844 94.269531 28.601562 Z M 65.71875 14.214844 C 64.359375 13.46875 62.566406 13.578125 61.359375 14.75 C 58.136719 17.882812 57.960938 23.945312 61.476562 26.855469 C 62.96875 28.023438 65.101562 27.515625 66.339844 26.195312 C 68.980469 23.363281 69.261719 18.582031 67.0625 15.472656 C 66.722656 14.933594 66.253906 14.507812 65.71875 14.214844 Z M 76.503906 28.71875 C 73.820312 27.285156 70.351562 27.203125 67.507812 28.328125 C 64.34375 29.714844 61.304688 31.675781 59.078125 34.378906 C 57.175781 36.160156 57.484375 39.554688 59.773438 40.800781 C 62.492188 42.359375 65.898438 41.710938 68.71875 43.039062 C 71.242188 43.929688 72.664062 46.277344 74.328125 48.203125 C 75.695312 49.929688 78.316406 50.957031 80.273438 49.5 C 82.054688 47.902344 82.136719 45.222656 82.210938 42.996094 C 81.96875 39.183594 81.675781 35.15625 79.714844 31.804688 C 78.941406 30.445312 77.816406 29.421875 76.503906 28.71875 Z M 76.503906 28.71875 " fill-opacity="1" fill-rule="nonzero"/><path fill="rgb(100%, 74.119568%, 34.899902%)" d="M 99.734375 74.761719 C 99.660156 74.722656 99.582031 74.6875 99.503906 74.652344 C 96.230469 73.570312 92.859375 75.894531 91.101562 78.597656 C 89.375 80.972656 88.714844 84.871094 91.183594 86.9375 C 91.546875 87.230469 91.984375 87.417969 92.4375 87.523438 C 96.394531 88.179688 100.054688 84.964844 101.359375 81.378906 C 102.375 79.15625 102.035156 75.957031 99.734375 74.761719 Z M 86.980469 68.097656 C 85.09375 67.144531 82.617188 68.28125 81.355469 69.921875 C 78.816406 73.148438 78.035156 78.429688 81.089844 81.519531 C 81.390625 81.78125 81.742188 81.976562 82.117188 82.109375 C 84.816406 83.019531 87.378906 80.769531 88.492188 78.441406 C 90.03125 75.410156 90.359375 71.125 87.742188 68.636719 C 87.503906 68.410156 87.25 68.234375 86.980469 68.097656 Z M 102.324219 89.363281 C 99 87.832031 95.042969 89.902344 93.09375 92.773438 C 91.492188 94.738281 91.066406 98.285156 93.4375 99.785156 C 96.902344 101.585938 101.253906 99.121094 103.074219 95.964844 C 104.433594 93.960938 104.585938 90.726562 102.324219 89.363281 Z M 73.773438 74.976562 C 72.410156 74.230469 70.617188 74.339844 69.410156 75.511719 C 66.1875 78.640625 66.015625 84.707031 69.53125 87.613281 C 71.023438 88.78125 73.15625 88.277344 74.394531 86.957031 C 77.03125 84.125 77.3125 79.34375 75.113281 76.234375 C 74.773438 75.695312 74.304688 75.269531 73.773438 74.976562 Z M 84.558594 89.480469 C 81.871094 88.046875 78.402344 87.964844 75.558594 89.085938 C 72.394531 90.476562 69.359375 92.4375 67.128906 95.136719 C 65.230469 96.921875 65.539062 100.3125 67.824219 101.558594 C 70.542969 103.117188 73.949219 102.46875 76.769531 103.800781 C 79.292969 104.691406 80.71875 107.035156 82.378906 108.964844 C 83.746094 110.691406 86.367188 111.71875 88.324219 110.261719 C 90.105469 108.664062 90.191406 105.984375 90.265625 103.753906 C 90.019531 99.945312 89.730469 95.917969 87.769531 92.566406 C 86.996094 91.203125 85.871094 90.179688 84.558594 89.480469 Z M 84.558594 89.480469 " fill-opacity="1" fill-rule="nonzero"/><path fill="rgb(100%, 74.119568%, 34.899902%)" d="M 57.207031 151.902344 C 57.132812 151.863281 57.054688 151.824219 56.976562 151.792969 C 53.707031 150.710938 50.335938 153.035156 48.578125 155.734375 C 46.847656 158.113281 46.191406 162.007812 48.660156 164.074219 C 49.019531 164.367188 49.457031 164.558594 49.910156 164.660156 C 53.867188 165.316406 57.527344 162.105469 58.835938 158.515625 C 59.847656 156.292969 59.507812 153.097656 57.207031 151.902344 Z M 44.453125 145.234375 C 42.566406 144.285156 40.089844 145.417969 38.828125 147.058594 C 36.292969 150.285156 35.511719 155.566406 38.5625 158.65625 C 38.867188 158.917969 39.214844 159.113281 39.59375 159.246094 C 42.289062 160.15625 44.851562 157.90625 45.96875 155.582031 C 47.503906 152.546875 47.832031 148.261719 45.21875 145.773438 C 44.976562 145.550781 44.722656 145.371094 44.453125 145.234375 Z M 59.796875 166.5 C 56.476562 164.96875 52.519531 167.039062 50.570312 169.910156 C 48.964844 171.875 48.539062 175.425781 50.914062 176.921875 C 54.375 178.726562 58.726562 176.257812 60.550781 173.105469 C 61.90625 171.101562 62.058594 167.867188 59.796875 166.5 Z M 31.246094 152.113281 C 29.882812 151.367188 28.089844 151.476562 26.886719 152.648438 C 23.660156 155.78125 23.488281 161.84375 27.003906 164.753906 C 28.496094 165.921875 30.628906 165.414062 31.867188 164.09375 C 34.503906 161.261719 34.789062 156.480469 32.585938 153.371094 C 32.25 152.832031 31.78125 152.40625 31.246094 152.113281 Z M 42.03125 166.617188 C 39.34375 165.183594 35.875 165.101562 33.035156 166.226562 C 29.867188 167.613281 26.832031 169.578125 24.605469 172.277344 C 22.703125 174.058594 23.011719 177.453125 25.300781 178.699219 C 28.015625 180.257812 31.421875 179.609375 34.246094 180.9375 C 36.765625 181.828125 38.191406 184.175781 39.851562 186.101562 C 41.21875 187.832031 43.84375 188.855469 45.800781 187.398438 C 47.582031 185.800781 47.664062 183.121094 47.738281 180.894531 C 47.496094 177.082031 47.203125 173.054688 45.242188 169.707031 C 44.46875 168.34375 43.34375 167.320312 42.03125 166.617188 Z M 42.03125 166.617188 " fill-opacity="1" fill-rule="nonzero"/></g></g></g><g mask="url(#mask-5)"><g transform="matrix(1, 0, 0, 1, 259, 182)"><g id="source-20" clip-path="url(#clip-5)"><path fill="rgb(100%, 74.119568%, 34.899902%)" d="M 43.296875 88.597656 C 43.222656 88.558594 43.144531 88.523438 43.066406 88.488281 C 39.792969 87.40625 36.425781 89.730469 34.664062 92.429688 C 32.9375 94.808594 32.277344 98.703125 34.75 100.769531 C 35.109375 101.0625 35.546875 101.253906 36 101.355469 C 39.957031 102.011719 43.617188 98.800781 44.921875 95.210938 C 45.9375 92.988281 45.597656 89.792969 43.296875 88.597656 Z M 30.542969 81.933594 C 28.65625 80.980469 26.179688 82.113281 24.917969 83.753906 C 22.382812 86.980469 21.597656 92.265625 24.652344 95.351562 C 24.957031 95.613281 25.304688 95.8125 25.683594 95.941406 C 28.378906 96.851562 30.941406 94.601562 32.058594 92.277344 C 33.59375 89.242188 33.921875 84.960938 31.308594 82.472656 C 31.066406 82.246094 30.8125 82.066406 30.542969 81.933594 Z M 45.886719 103.195312 C 42.5625 101.664062 38.609375 103.738281 36.660156 106.605469 C 35.054688 108.570312 34.628906 112.121094 37.003906 113.617188 C 40.464844 115.421875 44.816406 112.953125 46.640625 109.800781 C 47.996094 107.796875 48.148438 104.5625 45.886719 103.195312 Z M 17.335938 88.8125 C 15.972656 88.0625 14.179688 88.171875 12.976562 89.34375 C 9.75 92.476562 9.578125 98.539062 13.09375 101.449219 C 14.585938 102.617188 16.71875 102.113281 17.957031 100.789062 C 20.59375 97.957031 20.878906 93.175781 18.675781 90.070312 C 18.335938 89.527344 17.871094 89.101562 17.335938 88.8125 Z M 28.121094 103.3125 C 25.433594 101.882812 21.964844 101.796875 19.121094 102.921875 C 15.957031 104.308594 12.921875 106.273438 10.695312 108.972656 C 8.792969 110.757812 9.101562 114.148438 11.386719 115.394531 C 14.105469 116.953125 17.511719 116.304688 20.332031 117.632812 C 22.855469 118.523438 24.28125 120.871094 25.941406 122.796875 C 27.308594 124.527344 29.933594 125.550781 31.886719 124.09375 C 33.671875 122.496094 33.753906 119.816406 33.828125 117.589844 C 33.585938 113.777344 33.292969 109.75 31.332031 106.402344 C 30.558594 105.039062 29.433594 104.015625 28.121094 103.3125 Z M 28.121094 103.3125 " fill-opacity="1" fill-rule="nonzero"/><path fill="rgb(100%, 74.119568%, 34.899902%)" d="M 92.355469 14.003906 C 92.28125 13.964844 92.203125 13.925781 92.125 13.890625 C 88.851562 12.8125 85.480469 15.132812 83.722656 17.835938 C 81.996094 20.214844 81.335938 24.109375 83.804688 26.175781 C 84.167969 26.46875 84.605469 26.65625 85.058594 26.761719 C 89.015625 27.417969 92.675781 24.203125 93.980469 20.617188 C 94.996094 18.394531 94.65625 15.199219 92.355469 14.003906 Z M 79.601562 7.335938 C 77.714844 6.382812 75.238281 7.519531 73.976562 9.160156 C 71.4375 12.386719 70.65625 17.667969 73.710938 20.757812 C 74.011719 21.019531 74.363281 21.214844 74.738281 21.347656 C 77.4375 22.257812 79.996094 20.007812 81.113281 17.683594 C 82.652344 14.648438 82.980469 10.363281 80.363281 7.875 C 80.125 7.648438 79.871094 7.472656 79.601562 7.335938 Z M 94.945312 28.601562 C 91.621094 27.070312 87.664062 29.140625 85.714844 32.011719 C 84.113281 33.976562 83.6875 37.523438 86.058594 39.023438 C 89.523438 40.824219 93.875 38.359375 95.695312 35.207031 C 97.054688 33.203125 97.207031 29.964844 94.945312 28.601562 Z M 66.394531 14.214844 C 65.03125 13.46875 63.238281 13.578125 62.03125 14.75 C 58.808594 17.882812 58.632812 23.945312 62.152344 26.855469 C 63.640625 28.023438 65.777344 27.515625 67.015625 26.195312 C 69.652344 23.363281 69.933594 18.582031 67.734375 15.472656 C 67.394531 14.933594 66.925781 14.507812 66.394531 14.214844 Z M 77.179688 28.71875 C 74.492188 27.285156 71.023438 27.203125 68.179688 28.328125 C 65.015625 29.714844 61.980469 31.675781 59.75 34.378906 C 57.851562 36.160156 58.160156 39.554688 60.445312 40.800781 C 63.164062 42.359375 66.570312 41.710938 69.390625 43.039062 C 71.914062 43.929688 73.339844 46.277344 75 48.203125 C 76.367188 49.929688 78.988281 50.957031 80.945312 49.5 C 82.726562 47.902344 82.8125 45.222656 82.882812 42.996094 C 82.640625 39.183594 82.351562 35.15625 80.390625 31.804688 C 79.617188 30.445312 78.492188 29.421875 77.179688 28.71875 Z M 77.179688 28.71875 " fill-opacity="1" fill-rule="nonzero"/><path fill="rgb(100%, 74.119568%, 34.899902%)" d="M 100.40625 74.761719 C 100.332031 74.722656 100.253906 74.6875 100.175781 74.652344 C 96.90625 73.570312 93.535156 75.894531 91.777344 78.597656 C 90.046875 80.972656 89.390625 84.871094 91.859375 86.9375 C 92.21875 87.230469 92.660156 87.417969 93.109375 87.523438 C 97.070312 88.179688 100.726562 84.964844 102.035156 81.378906 C 103.046875 79.15625 102.707031 75.957031 100.40625 74.761719 Z M 87.652344 68.097656 C 85.769531 67.144531 83.289062 68.28125 82.027344 69.921875 C 79.492188 73.148438 78.710938 78.429688 81.761719 81.519531 C 82.066406 81.78125 82.414062 81.976562 82.792969 82.109375 C 85.488281 83.019531 88.050781 80.769531 89.167969 78.441406 C 90.703125 75.410156 91.03125 71.125 88.417969 68.636719 C 88.175781 68.410156 87.921875 68.234375 87.652344 68.097656 Z M 102.996094 89.363281 C 99.675781 87.832031 95.71875 89.902344 93.769531 92.773438 C 92.164062 94.738281 91.738281 98.285156 94.113281 99.785156 C 97.578125 101.585938 101.925781 99.121094 103.75 95.964844 C 105.105469 93.960938 105.257812 90.726562 102.996094 89.363281 Z M 74.445312 74.976562 C 73.082031 74.230469 71.289062 74.339844 70.082031 75.511719 C 66.859375 78.640625 66.6875 84.707031 70.203125 87.613281 C 71.695312 88.78125 73.828125 88.277344 75.066406 86.957031 C 77.703125 84.125 77.988281 79.34375 75.785156 76.234375 C 75.449219 75.695312 74.980469 75.269531 74.445312 74.976562 Z M 85.230469 89.480469 C 82.542969 88.046875 79.074219 87.964844 76.234375 89.085938 C 73.066406 90.476562 70.03125 92.4375 67.804688 95.136719 C 65.902344 96.921875 66.210938 100.3125 68.5 101.558594 C 71.214844 103.117188 74.621094 102.46875 77.445312 103.800781 C 79.964844 104.691406 81.390625 107.035156 83.050781 108.964844 C 84.417969 110.691406 87.042969 111.71875 89 110.261719 C 90.78125 108.664062 90.863281 105.984375 90.9375 103.753906 C 90.695312 99.945312 90.402344 95.917969 88.441406 92.566406 C 87.667969 91.203125 86.542969 90.179688 85.230469 89.480469 Z M 85.230469 89.480469 " fill-opacity="1" fill-rule="nonzero"/><path fill="rgb(100%, 74.119568%, 34.899902%)" d="M 57.882812 151.902344 C 57.808594 151.863281 57.730469 151.824219 57.652344 151.792969 C 54.378906 150.710938 51.007812 153.035156 49.25 155.734375 C 47.523438 158.113281 46.863281 162.007812 49.332031 164.074219 C 49.695312 164.367188 50.132812 164.558594 50.585938 164.660156 C 54.542969 165.316406 58.199219 162.105469 59.507812 158.515625 C 60.523438 156.292969 60.179688 153.097656 57.882812 151.902344 Z M 45.125 145.234375 C 43.242188 144.285156 40.765625 145.417969 39.503906 147.058594 C 36.964844 150.285156 36.183594 155.566406 39.238281 158.65625 C 39.539062 158.917969 39.890625 159.113281 40.265625 159.246094 C 42.964844 160.15625 45.523438 157.90625 46.640625 155.582031 C 48.179688 152.546875 48.507812 148.261719 45.890625 145.773438 C 45.652344 145.550781 45.394531 145.371094 45.125 145.234375 Z M 60.472656 166.5 C 57.148438 164.96875 53.191406 167.039062 51.242188 169.910156 C 49.636719 171.875 49.214844 175.425781 51.585938 176.921875 C 55.050781 178.726562 59.402344 176.257812 61.222656 173.105469 C 62.582031 171.101562 62.734375 167.867188 60.472656 166.5 Z M 31.921875 152.113281 C 30.558594 151.367188 28.765625 151.476562 27.558594 152.648438 C 24.335938 155.78125 24.160156 161.84375 27.675781 164.753906 C 29.167969 165.921875 31.304688 165.414062 32.539062 164.09375 C 35.179688 161.261719 35.460938 156.480469 33.261719 153.371094 C 32.921875 152.832031 32.453125 152.40625 31.921875 152.113281 Z M 42.703125 166.617188 C 40.019531 165.183594 36.550781 165.101562 33.707031 166.226562 C 30.542969 167.613281 27.503906 169.578125 25.277344 172.277344 C 23.375 174.058594 23.6875 177.453125 25.972656 178.699219 C 28.691406 180.257812 32.097656 179.609375 34.917969 180.9375 C 37.441406 181.828125 38.863281 184.175781 40.527344 186.101562 C 41.894531 187.832031 44.515625 188.855469 46.472656 187.398438 C 48.253906 185.800781 48.335938 183.121094 48.410156 180.894531 C 48.167969 177.082031 47.875 173.054688 45.917969 169.707031 C 45.140625 168.34375 44.015625 167.320312 42.703125 166.617188 Z M 42.703125 166.617188 " fill-opacity="1" fill-rule="nonzero"/></g></g></g></svg>